<svg width="48" height="48" viewBox="0 0 48 48" fill="none" xmlns="http://www.w3.org/2000/svg">
<rect width="48" height="48" rx="7.5" fill="url(#paint0_linear_655_672-925276)"/>
<path d="M37.9467 19.7899C37.9468 20.5394 37.7245 21.2722 37.3079 21.8954C36.8913 22.5187 36.2992 23.0044 35.6064 23.2913C34.9136 23.5781 34.1512 23.6532 33.4157 23.5069C32.6803 23.3607 32.0047 22.9997 31.4745 22.4696L31.4435 22.4362L27.6612 18.1674C27.3414 17.8536 26.936 17.6412 26.496 17.5569C26.0559 17.4726 25.6007 17.52 25.1875 17.6933C24.7743 17.8667 24.4215 18.1581 24.1734 18.5311C23.9253 18.9041 23.7929 19.342 23.7929 19.7899C23.7929 20.2378 23.9253 20.6757 24.1734 21.0487C24.4215 21.4217 24.7743 21.7131 25.1875 21.8864C25.6007 22.0597 26.0559 22.1072 26.496 22.0229C26.936 21.9385 27.3414 21.7262 27.6612 21.4124L27.8558 21.1926C27.9218 21.118 28.0019 21.057 28.0914 21.0133C28.181 20.9696 28.2783 20.944 28.3778 20.9378C28.4773 20.9317 28.577 20.9452 28.6712 20.9776C28.7655 21.01 28.8524 21.0606 28.9271 21.1266C29.0018 21.1926 29.0628 21.2726 29.1065 21.3621C29.1502 21.4517 29.1759 21.5489 29.182 21.6484C29.1882 21.7478 29.1746 21.8475 29.1422 21.9417C29.1098 22.0359 29.0592 22.1228 28.9932 22.1974L28.7815 22.4362L28.7505 22.4696C28.2203 22.9995 27.5448 23.3604 26.8094 23.5065C26.074 23.6527 25.3117 23.5776 24.619 23.2908C23.9263 23.004 23.3342 22.5183 22.9177 21.8951C22.5011 21.272 22.2788 20.5393 22.2788 19.7899C22.2788 19.0404 22.5011 18.3078 22.9177 17.6847C23.3342 17.0615 23.9263 16.5758 24.619 16.289C25.3117 16.0021 26.074 15.9271 26.8094 16.0732C27.5448 16.2194 28.2203 16.5802 28.7505 17.1101L28.7815 17.1436L32.5638 21.4124C32.8836 21.7262 33.289 21.9385 33.729 22.0229C34.1691 22.1072 34.6243 22.0597 35.0375 21.8864C35.4507 21.7131 35.8035 21.4217 36.0516 21.0487C36.2997 20.6757 36.4321 20.2378 36.4321 19.7899C36.4321 19.342 36.2997 18.9041 36.0516 18.5311C35.8035 18.1581 35.4507 17.8667 35.0375 17.6933C34.6243 17.52 34.1691 17.4726 33.729 17.5569C33.289 17.6412 32.8836 17.8536 32.5638 18.1674L32.3692 18.3872C32.3032 18.4618 32.2231 18.5227 32.1336 18.5664C32.044 18.6102 31.9467 18.6358 31.8472 18.6419C31.7477 18.6481 31.648 18.6346 31.5538 18.6022C31.4595 18.5698 31.3726 18.5191 31.2979 18.4532C31.2232 18.3872 31.1623 18.3072 31.1185 18.2176C31.0748 18.1281 31.0491 18.0309 31.043 17.9314C31.0369 17.832 31.0504 17.7323 31.0828 17.6381C31.1152 17.5439 31.1658 17.457 31.2319 17.3823L31.4435 17.1436L31.4745 17.1101C32.0047 16.5801 32.6803 16.2191 33.4157 16.0728C34.1512 15.9266 34.9136 16.0016 35.6064 16.2885C36.2992 16.5753 36.8913 17.0611 37.3079 17.6844C37.7245 18.3076 37.9468 19.0403 37.9467 19.7899Z" fill="white"/>
<path d="M11.2991 27.0291C11.4157 26.9436 11.5052 26.8308 11.5674 26.6909C11.6374 26.5431 11.6802 26.3799 11.6958 26.201C11.7191 26.0222 11.7191 25.8317 11.6958 25.6296C11.6724 25.4274 11.6374 25.2214 11.5908 25.0114C11.583 24.9725 11.5752 24.9259 11.5674 24.8715C11.5674 24.8093 11.6102 24.751 11.6958 24.6965L13.5043 23.4136C13.6132 23.3514 13.6832 23.332 13.7144 23.3553C13.7455 23.3786 13.7805 23.4292 13.8194 23.5069C13.9361 23.7635 14.0372 24.0395 14.1227 24.335C14.2161 24.6227 14.2939 24.922 14.3561 25.233C14.4183 25.5362 14.465 25.8395 14.4961 26.1427C14.5272 26.4382 14.5506 26.7181 14.5661 26.9824C14.5739 27.1302 14.5778 27.3168 14.5778 27.5422C14.5778 27.7599 14.5739 27.9854 14.5661 28.2187C14.5584 28.4519 14.5467 28.6735 14.5311 28.8835C14.5234 29.0856 14.5117 29.2489 14.4961 29.3733C14.4572 29.6843 14.3911 29.9836 14.2978 30.2713C14.2122 30.559 14.0916 30.8078 13.9361 31.0177C13.7805 31.2199 13.586 31.4376 13.3527 31.6709C13.1193 31.9119 12.8159 32.1801 12.4425 32.4756C12.4114 32.4989 12.3764 32.5184 12.3375 32.5339C12.2986 32.5572 12.2597 32.5689 12.2208 32.5689C12.1897 32.5689 12.1625 32.5533 12.1392 32.5222C12.1236 32.4989 12.1236 32.4523 12.1392 32.3823C12.1936 32.0635 12.2364 31.7214 12.2675 31.356C12.2986 30.9905 12.3181 30.6251 12.3259 30.2597C12.3336 29.8865 12.3336 29.5288 12.3259 29.1867C12.3259 28.8446 12.3181 28.5414 12.3025 28.277C12.2014 28.3003 12.108 28.3159 12.0225 28.3236C11.9447 28.3314 11.863 28.3353 11.7774 28.3353C11.5752 28.3431 11.3885 28.3236 11.2174 28.277C11.0462 28.2303 10.8907 28.172 10.7507 28.1021C10.6106 28.0243 10.4862 27.9427 10.3773 27.8571C10.2684 27.7716 10.175 27.6939 10.0972 27.6239C9.94166 27.4606 9.97277 27.379 10.1906 27.379C10.3384 27.3634 10.5134 27.3362 10.7156 27.2973C10.9179 27.2584 11.1124 27.169 11.2991 27.0291Z" fill="white"/>
<path d="M16.9231 31.3443C16.822 31.2432 16.7831 31.1616 16.8064 31.0994C16.8298 31.0372 16.8959 30.975 17.0048 30.9128C17.2381 30.7884 17.5065 30.6484 17.8099 30.4929C18.1133 30.3374 18.405 30.1936 18.685 30.0614C18.965 29.9214 19.2062 29.8009 19.4084 29.6999C19.6185 29.5988 19.7429 29.5405 19.7818 29.5249C20.0152 29.3772 20.2369 29.1323 20.4469 28.7902C20.6647 28.4481 20.8436 28.0787 20.9836 27.6822C21.1314 27.2857 21.2248 26.8969 21.2637 26.5159C21.3026 26.1349 21.2637 25.8278 21.147 25.5946C21.0614 25.408 20.937 25.2563 20.7736 25.1397C20.6102 25.0231 20.4197 24.9492 20.2019 24.9181C19.9918 24.887 19.7585 24.9026 19.5018 24.9648C19.2451 25.027 18.9845 25.1397 18.72 25.303C18.4789 25.4585 18.2883 25.6218 18.1483 25.7928C18.016 25.9561 17.9188 26.1311 17.8566 26.3177C17.7943 26.5043 17.7593 26.7025 17.7515 26.9125C17.7438 27.1224 17.7438 27.3479 17.7515 27.5889C17.7515 27.6744 17.7321 27.7405 17.6932 27.7872C17.6621 27.826 17.5804 27.8377 17.4482 27.8221C17.3315 27.8144 17.1954 27.791 17.0398 27.7522C16.892 27.7055 16.7442 27.6511 16.5964 27.5889C16.4486 27.5189 16.3086 27.4412 16.1763 27.3556C16.0441 27.2623 15.943 27.1613 15.873 27.0524C15.7641 26.8969 15.698 26.7531 15.6746 26.6209C15.6513 26.4887 15.6435 26.3449 15.6513 26.1894C15.6668 25.8162 15.7913 25.4546 16.0247 25.1047C16.258 24.7548 16.6003 24.4438 17.0515 24.1717C17.3471 23.9696 17.666 23.8218 18.0082 23.7285C18.3505 23.6352 18.6967 23.5886 19.0467 23.5886C19.4434 23.5886 19.8363 23.643 20.2252 23.7518C20.6141 23.8607 20.9836 24.0201 21.3337 24.23C21.6837 24.44 21.9988 24.6965 22.2788 24.9998C22.5666 25.303 22.8 25.6451 22.9789 26.0261C23.1578 26.3993 23.2628 26.7414 23.2939 27.0524C23.325 27.3556 23.3134 27.6394 23.2589 27.9038C23.2045 28.1604 23.1189 28.4092 23.0022 28.6502C22.8855 28.8912 22.765 29.1362 22.6405 29.385C22.6094 29.4627 22.6288 29.5094 22.6988 29.5249C22.87 29.5638 23.0839 29.6377 23.3406 29.7465C23.6051 29.8476 23.8734 29.9759 24.1457 30.1314C24.418 30.2869 24.6747 30.4618 24.9158 30.6562C25.1647 30.8428 25.3631 31.0411 25.5109 31.251C25.6198 31.3832 25.6626 31.4726 25.6392 31.5192C25.6159 31.5659 25.5459 31.5698 25.4292 31.5309C24.8225 31.4065 24.3168 31.3132 23.9123 31.251C23.5078 31.1888 23.1345 31.1538 22.7922 31.146C22.5199 31.1383 22.2516 31.1538 21.9871 31.1927C21.7226 31.2393 21.4309 31.3132 21.112 31.4143C20.8008 31.5231 20.443 31.6631 20.0385 31.8341C19.6418 32.013 19.1634 32.2307 18.6033 32.4872C18.58 32.5028 18.5528 32.5184 18.5216 32.5339C18.4905 32.5495 18.4516 32.5572 18.405 32.5572C18.3661 32.565 18.3194 32.5572 18.2649 32.5339C18.2105 32.5184 18.1522 32.4795 18.0899 32.4173L16.9231 31.3443Z" fill="white"/>
<defs>
<linearGradient id="paint0_linear_655_672-925276" x1="11.5" y1="-6.9011e-07" x2="34" y2="48" gradientUnits="userSpaceOnUse">
<stop offset="0.0489146" stop-color="#BD3561"/>
<stop offset="1" stop-color="#9F2E79"/>
</linearGradient>
</defs>
</svg>