<svg xmlns="http://www.w3.org/2000/svg" width="48" height="48" fill="none"><path fill="#fff" d="M44.462 17.49a5.489 5.489 0 0 1-9.37 3.881l-.045-.048-5.477-6.184a3.292 3.292 0 1 0 0 4.7l.282-.317a1.1 1.1 0 0 1 1.647 1.455l-.307.346-.044.048a5.49 5.49 0 1 1 0-7.763l.044.048 5.477 6.184a3.293 3.293 0 1 0 0-4.7l-.282.318a1.099 1.099 0 1 1-1.647-1.456l.306-.346.045-.048a5.49 5.49 0 0 1 9.37 3.882M5.88 27.976q.255-.187.39-.49a2.1 2.1 0 0 0 .185-.71 3.4 3.4 0 0 0 0-.828 9 9 0 0 0-.152-.895 4 4 0 0 1-.034-.203q0-.135.186-.253l2.619-1.858q.236-.136.304-.085a.65.65 0 0 1 .152.22q.253.556.439 1.2.203.625.338 1.3.135.66.203 1.318.068.642.101 1.216.017.321.017.81a30 30 0 0 1-.068 1.944q-.017.439-.05.71a7 7 0 0 1-.288 1.3 3.5 3.5 0 0 1-.523 1.081 10 10 0 0 1-.845.946q-.507.525-1.318 1.166a.7.7 0 0 1-.152.084.33.33 0 0 1-.169.051q-.067 0-.118-.068-.033-.05 0-.202.118-.693.186-1.487t.084-1.588q.018-.81 0-1.554 0-.744-.033-1.318a3 3 0 0 1-.406.068q-.168.017-.355.017a2.7 2.7 0 0 1-.81-.085 3.7 3.7 0 0 1-.676-.253 4 4 0 0 1-.54-.355 8 8 0 0 1-.406-.338q-.337-.355.135-.355.32-.033.76-.118a2.05 2.05 0 0 0 .845-.388m8.143 6.25q-.22-.219-.17-.355.051-.135.288-.27.507-.27 1.165-.608.66-.338 1.267-.625l1.048-.524q.456-.219.54-.253.508-.321.963-1.065.474-.743.777-1.604.322-.862.406-1.69.085-.827-.17-1.334a1.63 1.63 0 0 0-.54-.66 1.85 1.85 0 0 0-.828-.32 2.7 2.7 0 0 0-1.013.067q-.558.136-1.132.49-.524.338-.828.71-.287.354-.422.76-.134.406-.152.862-.016.456 0 .98 0 .185-.085.287-.068.084-.354.05a3.4 3.4 0 0 1-.592-.101 7 7 0 0 1-.642-.236 5 5 0 0 1-.608-.338 1.6 1.6 0 0 1-.439-.44q-.236-.337-.287-.625-.05-.287-.034-.625.034-.81.54-1.57.507-.761 1.487-1.352.642-.44 1.386-.642a5.7 5.7 0 0 1 1.503-.203q.861 0 1.706.236a6.5 6.5 0 0 1 1.605.693q.76.456 1.369 1.115.624.66 1.013 1.487.39.81.456 1.486.067.659-.05 1.234a4.7 4.7 0 0 1-.372 1.08q-.253.525-.524 1.065-.068.169.085.203.371.084.929.32a8.4 8.4 0 0 1 1.165.558q.592.338 1.116.76.54.406.861.862.237.287.186.389-.05.1-.304.017a46 46 0 0 0-2.196-.406q-.88-.135-1.622-.152a6.7 6.7 0 0 0-1.166.068 10 10 0 0 0-1.267.32q-.675.236-1.554.609-.861.388-2.078.946a1 1 0 0 1-.118.067.4.4 0 0 1-.17.034.35.35 0 0 1-.202-.034.6.6 0 0 1-.253-.169z"/></svg>