<svg width="129" height="128" viewBox="0 0 129 128" fill="none" xmlns="http://www.w3.org/2000/svg">
<rect x="0.5" width="128" height="128" rx="20" fill="url(#paint0_linear_655_673-645976)"/>
<path d="M101.691 52.773C101.691 54.7718 101.099 56.7258 99.9876 58.3878C98.8768 60.0498 97.2978 61.3452 95.4503 62.1101C93.6028 62.875 91.5699 63.0751 89.6086 62.6851C87.6473 62.2951 85.8458 61.3325 84.4319 59.919L84.3494 59.8298L74.2631 48.4463C73.4104 47.6096 72.3294 47.0433 71.1558 46.8184C69.9823 46.5935 68.7684 46.7201 67.6665 47.1822C66.5647 47.6444 65.6239 48.4216 64.9623 49.4162C64.3007 50.4108 63.9478 51.5786 63.9478 52.773C63.9478 53.9674 64.3007 55.1352 64.9623 56.1298C65.6239 57.1245 66.5647 57.9016 67.6665 58.3638C68.7684 58.826 69.9823 58.9525 71.1558 58.7276C72.3294 58.5028 73.4104 57.9364 74.2631 57.0997L74.7821 56.5136C74.9581 56.3145 75.1716 56.1521 75.4105 56.0355C75.6493 55.919 75.9088 55.8505 76.1741 55.8342C76.4393 55.8179 76.7053 55.8539 76.9566 55.9403C77.208 56.0266 77.4398 56.1617 77.639 56.3376C77.8381 56.5135 78.0006 56.727 78.1173 56.9657C78.2339 57.2044 78.3023 57.4638 78.3187 57.7289C78.335 57.9941 78.299 58.2599 78.2126 58.5111C78.1261 58.7623 77.9911 58.9941 77.815 59.1931L77.2506 59.8298L77.168 59.919C75.7541 61.3321 73.9527 62.2943 71.9916 62.6841C70.0305 63.0739 67.9979 62.8737 66.1506 62.1088C64.3034 61.3439 62.7246 60.0487 61.6138 58.387C60.503 56.7252 59.9101 54.7715 59.9101 52.773C59.9101 50.7745 60.503 48.8208 61.6138 47.1591C62.7246 45.4973 64.3034 44.2021 66.1506 43.4372C67.9979 42.6724 70.0305 42.4721 71.9916 42.8619C73.9527 43.2517 75.7541 44.2139 77.168 45.627L77.2506 45.7163L87.3368 57.0997C88.1895 57.9364 89.2705 58.5028 90.4441 58.7276C91.6177 58.9525 92.8316 58.826 93.9334 58.3638C95.0353 57.9016 95.976 57.1245 96.6376 56.1298C97.2992 55.1352 97.6521 53.9674 97.6521 52.773C97.6521 51.5786 97.2992 50.4108 96.6376 49.4162C95.976 48.4216 95.0353 47.6444 93.9334 47.1822C92.8316 46.7201 91.6177 46.5935 90.4441 46.8184C89.2705 47.0433 88.1895 47.6096 87.3368 48.4463L86.8178 49.0324C86.6418 49.2315 86.4283 49.3939 86.1895 49.5105C85.9506 49.6271 85.6912 49.6955 85.4259 49.7118C85.1606 49.7282 84.8947 49.6921 84.6433 49.6058C84.392 49.5194 84.1601 49.3844 83.961 49.2084C83.7618 49.0325 83.5993 48.8191 83.4827 48.5803C83.366 48.3416 83.2976 48.0823 83.2813 47.8171C83.2649 47.5519 83.301 47.2862 83.3874 47.0349C83.4738 46.7837 83.6089 46.5519 83.7849 46.3529L84.3494 45.7163L84.4319 45.627C85.8458 44.2135 87.6473 43.2509 89.6086 42.8609C91.5699 42.4709 93.6028 42.671 95.4503 43.4359C97.2978 44.2009 98.8768 45.4963 99.9876 47.1583C101.099 48.8203 101.691 50.7742 101.691 52.773Z" fill="white"/>
<path d="M30.6308 72.0775C30.9419 71.8495 31.1805 71.5488 31.3464 71.1756C31.5331 70.7817 31.6472 70.3463 31.6887 69.8694C31.7509 69.3925 31.7509 68.8845 31.6887 68.3455C31.6265 67.8064 31.5331 67.2569 31.4086 66.6971C31.3879 66.5935 31.3672 66.469 31.3464 66.3239C31.3464 66.158 31.4605 66.0025 31.6887 65.8574L36.5115 62.4363C36.8019 62.2705 36.9886 62.2186 37.0716 62.2808C37.1546 62.343 37.2479 62.4778 37.3516 62.6851C37.6628 63.3694 37.9324 64.1054 38.1606 64.8933C38.4095 65.6604 38.617 66.4587 38.7829 67.288C38.9489 68.0967 39.0733 68.9053 39.1563 69.7139C39.2393 70.5018 39.3015 71.2482 39.343 71.9531C39.3637 72.3471 39.3741 72.8447 39.3741 73.446C39.3741 74.0265 39.3637 74.6278 39.343 75.2498C39.3223 75.8718 39.2911 76.4627 39.2497 77.0225C39.2289 77.5616 39.1978 77.997 39.1563 78.3288C39.0526 79.1581 38.8763 79.9564 38.6273 80.7235C38.3992 81.4907 38.0777 82.1542 37.6628 82.714C37.2479 83.253 36.7293 83.8336 36.107 84.4556C35.4847 85.0984 34.6757 85.8137 33.6801 86.6016C33.5971 86.6638 33.5037 86.7156 33.4 86.7571C33.2963 86.8193 33.1926 86.8504 33.0889 86.8504C33.0059 86.8504 32.9333 86.8089 32.8711 86.726C32.8296 86.6638 32.8296 86.5394 32.8711 86.3527C33.0163 85.5027 33.1304 84.5904 33.2133 83.6159C33.2963 82.6414 33.3482 81.6669 33.3689 80.6924C33.3896 79.6972 33.3896 78.7435 33.3689 77.8312C33.3689 76.9189 33.3482 76.1103 33.3067 75.4053C33.037 75.4675 32.7881 75.509 32.5599 75.5297C32.3525 75.5504 32.1347 75.5608 31.9065 75.5608C31.3672 75.5816 30.8693 75.5297 30.413 75.4053C29.9566 75.2809 29.5417 75.1254 29.1684 74.9388C28.795 74.7315 28.4631 74.5138 28.1727 74.2857C27.8823 74.0576 27.6334 73.8503 27.4259 73.6637C27.0111 73.2283 27.094 73.0106 27.6748 73.0106C28.069 72.9691 28.5357 72.8965 29.075 72.7929C29.6143 72.6892 30.1329 72.4507 30.6308 72.0775Z" fill="white"/>
<path d="M45.6282 83.5848C45.3586 83.3153 45.2549 83.0975 45.3171 82.9317C45.3793 82.7658 45.5556 82.5999 45.8461 82.4341C46.4684 82.1023 47.184 81.7291 47.993 81.3144C48.802 80.8998 49.5799 80.5162 50.3266 80.1637C51.0734 79.7905 51.7164 79.4691 52.2558 79.1996C52.8158 78.9301 53.1477 78.7746 53.2514 78.7331C53.8737 78.3391 54.4649 77.686 55.025 76.7737C55.6058 75.8615 56.0829 74.8766 56.4563 73.8192C56.8504 72.7618 57.0993 71.7251 57.2031 70.7091C57.3068 69.6932 57.2031 68.8742 56.8919 68.2522C56.6637 67.7545 56.3318 67.3502 55.8962 67.0392C55.4606 66.7282 54.9524 66.5313 54.3716 66.4483C53.8115 66.3654 53.1892 66.4069 52.5047 66.5727C51.8201 66.7386 51.1252 67.0392 50.42 67.4746C49.7769 67.8893 49.2687 68.3247 48.8953 68.7809C48.5427 69.2163 48.2834 69.6828 48.1175 70.1804C47.9515 70.678 47.8582 71.2067 47.8374 71.7665C47.8167 72.3263 47.8167 72.9276 47.8374 73.5704C47.8374 73.7984 47.7856 73.9747 47.6818 74.0991C47.5989 74.2027 47.3811 74.2339 47.0284 74.1924C46.7173 74.1716 46.3543 74.1094 45.9394 74.0058C45.5453 73.8814 45.1511 73.7362 44.757 73.5704C44.3629 73.3838 43.9895 73.1764 43.6369 72.9484C43.2842 72.6996 43.0146 72.43 42.8279 72.1397C42.5375 71.7251 42.3612 71.3415 42.2989 70.989C42.2367 70.6365 42.216 70.253 42.2367 69.8383C42.2782 68.8431 42.6101 67.8789 43.2324 66.9459C43.8547 66.0129 44.7674 65.1836 45.9705 64.4579C46.7588 63.9188 47.6092 63.5249 48.5219 63.276C49.4347 63.0272 50.3577 62.9028 51.2912 62.9028C52.3491 62.9028 53.3966 63.048 54.4338 63.3383C55.471 63.6285 56.4563 64.0536 57.3897 64.6134C58.3232 65.1732 59.1633 65.8574 59.9101 66.666C60.6776 67.4746 61.2999 68.3869 61.777 69.4029C62.2541 70.3981 62.5341 71.3104 62.6171 72.1397C62.7001 72.9484 62.6689 73.7051 62.5237 74.4101C62.3785 75.0943 62.1504 75.7578 61.8392 76.4005C61.5281 77.0433 61.2065 77.6964 60.8746 78.3599C60.7917 78.5672 60.8435 78.6916 61.0302 78.7331C61.4866 78.8368 62.057 79.0337 62.7415 79.324C63.4468 79.5935 64.1625 79.9356 64.8885 80.3503C65.6145 80.765 66.299 81.2315 66.9421 81.7498C67.6059 82.2475 68.1348 82.7762 68.5289 83.336C68.8194 83.6885 68.9334 83.9269 68.8712 84.0513C68.809 84.1757 68.6223 84.1861 68.3111 84.0824C66.6932 83.7507 65.3448 83.5019 64.2662 83.336C63.1875 83.1701 62.1918 83.0768 61.2791 83.0561C60.5531 83.0353 59.8375 83.0768 59.1322 83.1805C58.4269 83.3049 57.649 83.5019 56.7986 83.7714C55.9688 84.0617 55.0146 84.4349 53.936 84.891C52.8781 85.3679 51.6023 85.9484 50.1088 86.6327C50.0466 86.6741 49.974 86.7156 49.891 86.7571C49.808 86.7985 49.7043 86.8193 49.5799 86.8193C49.4761 86.84 49.3517 86.8193 49.2065 86.7571C49.0613 86.7156 48.9057 86.6119 48.7398 86.4461L45.6282 83.5848Z" fill="white"/>
<defs>
<linearGradient id="paint0_linear_655_673-645976" x1="31.1667" y1="-1.84029e-06" x2="91.1667" y2="128" gradientUnits="userSpaceOnUse">
<stop offset="0.0489146" stop-color="#BD3561"/>
<stop offset="1" stop-color="#9F2E79"/>
</linearGradient>
</defs>
</svg>