<svg xmlns="http://www.w3.org/2000/svg" width="128" height="128" fill="none"><rect width="128" height="128" fill="url(#a)" rx="20"/><path fill="#fff" d="M105.396 51.174a11.176 11.176 0 0 1-13.359 10.959 11.2 11.2 0 0 1-5.723-3.058l-.092-.1L75.071 46.39a6.708 6.708 0 0 0-11.405 4.784 6.7 6.7 0 0 0 4.112 6.181 6.71 6.71 0 0 0 7.293-1.397l.574-.648a2.238 2.238 0 0 1 3.353 2.962l-.624.704-.091.099a11.18 11.18 0 0 1-19.081-7.901 11.17 11.17 0 0 1 6.9-10.322 11.18 11.18 0 0 1 12.18 2.421l.092.099 11.151 12.586a6.708 6.708 0 0 0 11.405-4.784 6.7 6.7 0 0 0-4.111-6.181 6.71 6.71 0 0 0-7.294 1.397l-.574.648a2.237 2.237 0 0 1-3.353-2.962l.624-.704.092-.099a11.179 11.179 0 0 1 19.082 7.9M26.83 72.517q.516-.378.791-.997.31-.653.379-1.444a7 7 0 0 0 0-1.685 18 18 0 0 0-.31-1.823 8 8 0 0 1-.069-.412q0-.275.379-.516l5.332-3.782q.481-.276.62-.172.136.104.309.447.516 1.134.894 2.441.413 1.272.688 2.648.276 1.341.413 2.682.137 1.306.206 2.476.035.652.035 1.65 0 .963-.035 1.995a48 48 0 0 1-.103 1.96 18 18 0 0 1-.103 1.444q-.172 1.376-.585 2.647-.378 1.273-1.066 2.201a20 20 0 0 1-1.72 1.926q-1.032 1.065-2.684 2.372a1.4 1.4 0 0 1-.31.172.66.66 0 0 1-.343.103q-.138 0-.241-.137-.069-.103 0-.413.24-1.41.378-3.026t.172-3.232q.035-1.65 0-3.163 0-1.514-.068-2.683a6 6 0 0 1-.826.138q-.344.034-.723.034a5.5 5.5 0 0 1-1.65-.171 7.5 7.5 0 0 1-1.377-.516q-.62-.344-1.1-.722a16 16 0 0 1-.826-.688q-.688-.722.275-.722.654-.069 1.548-.24.895-.173 1.72-.792M43.412 85.24q-.448-.447-.344-.722.102-.276.584-.55 1.032-.55 2.374-1.238a89 89 0 0 1 2.58-1.273l2.133-1.065a31 31 0 0 1 1.1-.516q1.034-.654 1.962-2.166a16 16 0 0 0 1.582-3.267q.654-1.754.826-3.439t-.344-2.716a3.3 3.3 0 0 0-1.101-1.341 3.8 3.8 0 0 0-1.686-.654q-.928-.136-2.064.138-1.135.275-2.305.997-1.066.688-1.685 1.444-.585.723-.86 1.548a6.3 6.3 0 0 0-.31 1.753 29 29 0 0 0 0 1.995q0 .378-.172.584-.138.173-.722.104a7 7 0 0 1-1.205-.207 15 15 0 0 1-1.307-.481 11 11 0 0 1-1.238-.688q-.585-.412-.895-.894-.481-.688-.584-1.272a5.7 5.7 0 0 1-.07-1.272q.07-1.65 1.102-3.198t3.027-2.751a9.3 9.3 0 0 1 2.82-1.307q1.514-.413 3.063-.413 1.754 0 3.474.482 1.72.48 3.268 1.41a12.6 12.6 0 0 1 2.787 2.27 11.4 11.4 0 0 1 2.064 3.025q.79 1.651.929 3.026a8.2 8.2 0 0 1-.103 2.51 9.6 9.6 0 0 1-.757 2.2q-.516 1.067-1.067 2.167-.137.344.172.413.758.171 1.892.653 1.17.447 2.374 1.135t2.27 1.547q1.102.825 1.755 1.754.482.585.378.79-.103.207-.619.035a95 95 0 0 0-4.472-.825 26 26 0 0 0-3.303-.31 13.6 13.6 0 0 0-2.373.138q-1.17.206-2.58.653-1.377.482-3.165 1.238-1.755.791-4.232 1.926a2 2 0 0 1-.24.137.8.8 0 0 1-.344.069q-.173.034-.413-.069-.24-.069-.516-.344z"/><defs><linearGradient id="a" x1="30.667" x2="90.667" y1="0" y2="128" gradientUnits="userSpaceOnUse"><stop offset=".049" stop-color="#170209"/><stop offset="1" stop-color="#12040D"/></linearGradient></defs></svg>