<svg width="128" height="128" viewBox="0 0 128 128" fill="none" xmlns="http://www.w3.org/2000/svg">
<rect width="128" height="128" rx="20" fill="url(#paint0_linear_655_673-202011)"/>
<path d="M105.396 51.1738C105.396 53.3837 104.741 55.544 103.512 57.3816C102.284 59.2191 100.538 60.6513 98.4957 61.497C96.4531 62.3428 94.2055 62.564 92.037 62.1328C89.8686 61.7016 87.8768 60.6373 86.3136 59.0746L86.2223 58.9759L75.0708 46.3901C74.128 45.465 72.9329 44.8389 71.6353 44.5902C70.3378 44.3416 68.9957 44.4815 67.7775 44.9925C66.5592 45.5035 65.5191 46.3627 64.7877 47.4624C64.0562 48.5621 63.666 49.8532 63.666 51.1738C63.666 52.4943 64.0562 53.7855 64.7877 54.8851C65.5191 55.9848 66.5592 56.8441 67.7775 57.3551C68.9957 57.866 70.3378 58.006 71.6353 57.7573C72.9329 57.5087 74.128 56.8825 75.0708 55.9575L75.6446 55.3095C75.8392 55.0894 76.0753 54.9098 76.3393 54.7809C76.6034 54.652 76.8903 54.5764 77.1836 54.5583C77.4769 54.5402 77.7709 54.5801 78.0488 54.6756C78.3267 54.7711 78.583 54.9203 78.8032 55.1149C79.0234 55.3094 79.2031 55.5454 79.332 55.8093C79.461 56.0732 79.5366 56.36 79.5547 56.6531C79.5728 56.9463 79.5329 57.2402 79.4374 57.5179C79.3418 57.7957 79.1925 58.0519 78.9979 58.272L78.3738 58.9759L78.2825 59.0746C76.7192 60.6369 74.7276 61.7007 72.5594 62.1317C70.3912 62.5626 68.1438 62.3413 66.1015 61.4956C64.0591 60.6499 62.3136 59.2179 61.0854 57.3807C59.8573 55.5434 59.2018 53.3834 59.2018 51.1738C59.2018 48.9642 59.8573 46.8042 61.0854 44.9669C62.3136 43.1296 64.0591 41.6976 66.1015 40.852C68.1438 40.0063 70.3912 39.7849 72.5594 40.2159C74.7276 40.6468 76.7192 41.7107 78.2825 43.273L78.3738 43.3717L89.5253 55.9575C90.4681 56.8825 91.6633 57.5087 92.9608 57.7573C94.2583 58.006 95.6004 57.866 96.8187 57.3551C98.0369 56.8441 99.077 55.9848 99.8085 54.8851C100.54 53.7855 100.93 52.4943 100.93 51.1738C100.93 49.8532 100.54 48.5621 99.8085 47.4624C99.077 46.3627 98.0369 45.5035 96.8187 44.9925C95.6004 44.4815 94.2583 44.3416 92.9608 44.5902C91.6633 44.8389 90.4681 45.465 89.5253 46.3901L88.9515 47.0381C88.7569 47.2582 88.5209 47.4378 88.2568 47.5667C87.9927 47.6956 87.7059 47.7712 87.4126 47.7893C87.1193 47.8073 86.8253 47.7675 86.5474 47.672C86.2695 47.5765 86.0131 47.4272 85.7929 47.2327C85.5728 47.0382 85.3931 46.8022 85.2641 46.5383C85.1352 46.2743 85.0595 45.9876 85.0414 45.6944C85.0234 45.4013 85.0632 45.1074 85.1588 44.8296C85.2543 44.5519 85.4036 44.2956 85.5983 44.0756L86.2223 43.3717L86.3136 43.273C87.8768 41.7102 89.8686 40.646 92.037 40.2148C94.2055 39.7836 96.4531 40.0048 98.4957 40.8505C100.538 41.6963 102.284 43.1285 103.512 44.966C104.741 46.8036 105.396 48.9639 105.396 51.1738Z" fill="white"/>
<path d="M26.83 72.5172C27.174 72.2651 27.4378 71.9327 27.6213 71.5201C27.8277 71.0845 27.9538 70.6031 27.9997 70.0759C28.0685 69.5486 28.0685 68.987 27.9997 68.391C27.9309 67.795 27.8277 67.1875 27.6901 66.5685C27.6671 66.4539 27.6442 66.3164 27.6213 66.1559C27.6213 65.9725 27.7474 65.8006 27.9997 65.6401L33.3319 61.8577C33.653 61.6743 33.8594 61.617 33.9511 61.6858C34.0429 61.7546 34.1461 61.9036 34.2607 62.1328C34.6048 62.8893 34.9029 63.7031 35.1552 64.5742C35.4304 65.4224 35.6597 66.3049 35.8432 67.2219C36.0267 68.1159 36.1643 69.0099 36.256 69.9039C36.3478 70.775 36.4166 71.6003 36.4624 72.3797C36.4854 72.8153 36.4968 73.3654 36.4968 74.0302C36.4968 74.6721 36.4854 75.3369 36.4624 76.0246C36.4395 76.7123 36.4051 77.3656 36.3592 77.9845C36.3363 78.5806 36.3019 79.062 36.256 79.4287C36.1414 80.3457 35.9464 81.2282 35.6712 82.0764C35.4189 82.9246 35.0634 83.6581 34.6048 84.2771C34.1461 84.8731 33.5727 85.515 32.8847 86.2027C32.1967 86.9133 31.3022 87.7042 30.2014 88.5753C30.1096 88.644 30.0064 88.7014 29.8918 88.7472C29.7771 88.816 29.6624 88.8504 29.5477 88.8504C29.456 88.8504 29.3757 88.8045 29.3069 88.7128C29.2611 88.644 29.2611 88.5065 29.3069 88.3002C29.4675 87.3603 29.5936 86.3517 29.6853 85.2743C29.7771 84.1969 29.8344 83.1194 29.8574 82.042C29.8803 80.9417 29.8803 79.8872 29.8574 78.8786C29.8574 77.8699 29.8344 76.9759 29.7886 76.1965C29.4904 76.2653 29.2152 76.3111 28.9629 76.334C28.7336 76.357 28.4928 76.3684 28.2405 76.3684C27.6442 76.3913 27.0938 76.334 26.5892 76.1965C26.0847 76.059 25.626 75.887 25.2132 75.6807C24.8003 75.4515 24.4334 75.2108 24.1123 74.9586C23.7912 74.7065 23.516 74.4772 23.2867 74.2709C22.828 73.7895 22.9197 73.5488 23.5619 73.5488C23.9976 73.503 24.5137 73.4227 25.11 73.3081C25.7062 73.1935 26.2796 72.9299 26.83 72.5172Z" fill="white"/>
<path d="M43.4115 85.2399C43.1134 84.9419 42.9987 84.7012 43.0675 84.5178C43.1363 84.3344 43.3313 84.151 43.6523 83.9676C44.3404 83.6008 45.1316 83.1882 46.026 82.7297C46.9205 82.2713 47.7805 81.8472 48.6061 81.4575C49.4318 81.0449 50.1427 80.6895 50.739 80.3915C51.3583 80.0935 51.7252 79.9216 51.8399 79.8757C52.5279 79.4402 53.1815 78.7181 53.8008 77.7095C54.4429 76.7008 54.9704 75.6119 55.3832 74.4428C55.819 73.2737 56.0942 72.1275 56.2089 71.0043C56.3235 69.881 56.2089 68.9755 55.8648 68.2878C55.6126 67.7377 55.2456 67.2906 54.764 66.9468C54.2824 66.6029 53.7205 66.3852 53.0783 66.2935C52.4591 66.2018 51.7711 66.2476 51.0142 66.431C50.2574 66.6144 49.4891 66.9468 48.7093 67.4282C47.9984 67.8867 47.4365 68.3681 47.0237 68.8724C46.6338 69.3538 46.3471 69.8696 46.1636 70.4197C45.9802 70.9699 45.877 71.5544 45.854 72.1734C45.8311 72.7923 45.8311 73.4571 45.854 74.1678C45.854 74.4199 45.7967 74.6148 45.682 74.7523C45.5903 74.8669 45.3495 74.9013 44.9596 74.8555C44.6156 74.8325 44.2142 74.7638 43.7555 74.6491C43.3198 74.5116 42.884 74.3511 42.4483 74.1678C42.0125 73.9614 41.5997 73.7322 41.2098 73.48C40.82 73.205 40.5218 72.9069 40.3154 72.586C39.9943 72.1275 39.7994 71.7035 39.7306 71.3137C39.6618 70.924 39.6388 70.5 39.6618 70.0415C39.7076 68.9412 40.0746 67.8752 40.7626 66.8436C41.4506 65.8121 42.4598 64.8951 43.7899 64.0928C44.6614 63.4968 45.6017 63.0612 46.6109 62.7861C47.62 62.5111 48.6405 62.3735 49.6726 62.3735C50.8422 62.3735 52.0004 62.534 53.1471 62.8549C54.2938 63.1758 55.3832 63.6458 56.4153 64.2647C57.4473 64.8837 58.3762 65.6401 59.2018 66.5342C60.0504 67.4282 60.7384 68.4368 61.2659 69.5601C61.7934 70.6604 62.103 71.6691 62.1947 72.586C62.2865 73.48 62.2521 74.3168 62.0915 75.0962C61.931 75.8526 61.6787 76.5862 61.3347 77.2968C60.9907 78.0075 60.6352 78.7296 60.2682 79.4631C60.1765 79.6924 60.2338 79.8299 60.4402 79.8757C60.9448 79.9904 61.5755 80.2081 62.3323 80.5291C63.1121 80.8271 63.9033 81.2053 64.706 81.6638C65.5087 82.1223 66.2656 82.638 66.9765 83.2111C67.7104 83.7613 68.2952 84.3459 68.731 84.9648C69.0521 85.3545 69.1782 85.6181 69.1094 85.7557C69.0406 85.8932 68.8342 85.9047 68.4902 85.7901C66.7013 85.4233 65.2106 85.1482 64.018 84.9648C62.8254 84.7814 61.7246 84.6782 60.7155 84.6553C59.9128 84.6324 59.1215 84.6783 58.3418 84.7929C57.562 84.9304 56.702 85.1482 55.7616 85.4462C54.8443 85.7671 53.7893 86.1798 52.5967 86.6841C51.4271 87.2113 50.0166 87.8532 48.3653 88.6097C48.2965 88.6555 48.2163 88.7014 48.1245 88.7472C48.0328 88.7931 47.9181 88.816 47.7805 88.816C47.6658 88.8389 47.5282 88.816 47.3677 88.7472C47.2072 88.7014 47.0351 88.5867 46.8517 88.4034L43.4115 85.2399Z" fill="white"/>
<defs>
<linearGradient id="paint0_linear_655_673-202011" x1="30.6667" y1="-1.84029e-06" x2="90.6667" y2="128" gradientUnits="userSpaceOnUse">
<stop offset="0.0489146" stop-color="#170209"/>
<stop offset="1" stop-color="#12040D"/>
</linearGradient>
</defs>
</svg>