<svg width="46" height="45" viewBox="0 0 46 45" fill="none" xmlns="http://www.w3.org/2000/svg">
<g clip-path="url(#clip0_1143_653)">
<rect x="0.525391" width="45" height="45" rx="6.13915" fill="black"/>
<g filter="url(#filter0_b_1143_653)">
<rect x="0.525391" width="45" height="45" fill="url(#paint0_linear_1143_653)"/>
</g>
<path d="M12.4711 14.375C12.4302 14.375 12.3954 14.3627 12.3668 14.3382C12.3422 14.3095 12.3299 14.2748 12.3299 14.2339C12.3299 14.2052 12.3361 14.1827 12.3484 14.1664L13.6002 12.1475L12.4588 10.282C12.4424 10.2575 12.4343 10.233 12.4343 10.2084C12.4343 10.1757 12.4465 10.147 12.4711 10.1225C12.4956 10.0939 12.5263 10.0795 12.5631 10.0795H13.4468C13.5081 10.0795 13.5572 10.0918 13.594 10.1164C13.6309 10.1368 13.6574 10.1634 13.6738 10.1961L14.582 11.718H14.9379V10.233C14.9379 10.188 14.9522 10.1511 14.9809 10.1225C15.0095 10.0939 15.0463 10.0795 15.0913 10.0795H15.8461C15.8911 10.0795 15.9279 10.0939 15.9565 10.1225C15.9852 10.1511 15.9995 10.188 15.9995 10.233V11.718H16.3493L17.2574 10.1961C17.2779 10.1634 17.3065 10.1368 17.3434 10.1164C17.3802 10.0918 17.4272 10.0795 17.4845 10.0795H18.3681C18.409 10.0795 18.4418 10.0939 18.4663 10.1225C18.4909 10.147 18.5031 10.1757 18.5031 10.2084C18.5031 10.233 18.4949 10.2575 18.4786 10.282L17.3372 12.1475L18.589 14.1664C18.6013 14.1827 18.6074 14.2052 18.6074 14.2339C18.6074 14.2748 18.5931 14.3095 18.5645 14.3382C18.5399 14.3627 18.5072 14.375 18.4663 14.375H17.552C17.4906 14.375 17.4436 14.3607 17.4109 14.332C17.3822 14.3034 17.3597 14.2789 17.3434 14.2584L16.3922 12.6936H15.9995V14.2216C15.9995 14.2666 15.9852 14.3034 15.9565 14.332C15.9279 14.3607 15.8911 14.375 15.8461 14.375H15.0913C15.0463 14.375 15.0095 14.3607 14.9809 14.332C14.9522 14.3034 14.9379 14.2666 14.9379 14.2216V12.6936H14.539L13.594 14.2584C13.5777 14.2789 13.5531 14.3034 13.5204 14.332C13.4918 14.3607 13.4447 14.375 13.3793 14.375H12.4711ZM19.26 14.375C19.2191 14.375 19.1843 14.3607 19.1556 14.332C19.127 14.3034 19.1127 14.2686 19.1127 14.2277V11.3375C19.1127 11.2925 19.127 11.2557 19.1556 11.227C19.1843 11.1984 19.2211 11.1841 19.2661 11.1841H19.9902C20.0311 11.1841 20.0659 11.1984 20.0945 11.227C20.1272 11.2557 20.1436 11.2925 20.1436 11.3375V13.5773L19.8675 13.4423L21.3831 11.2823C21.4036 11.2536 21.4281 11.2311 21.4568 11.2148C21.4854 11.1943 21.5181 11.1841 21.555 11.1841H22.2116C22.2525 11.1841 22.2872 11.1984 22.3159 11.227C22.3445 11.2557 22.3588 11.2905 22.3588 11.3314V14.2216C22.3588 14.2666 22.3445 14.3034 22.3159 14.332C22.2872 14.3607 22.2504 14.375 22.2054 14.375H21.4813C21.4363 14.375 21.3995 14.3607 21.3709 14.332C21.3422 14.3034 21.3279 14.2666 21.3279 14.2216V12.0493L21.6102 12.1045L20.0822 14.2768C20.0659 14.3055 20.0434 14.33 20.0147 14.3505C19.9861 14.3668 19.9513 14.375 19.9104 14.375H19.26ZM23.1792 14.375C23.1342 14.375 23.0974 14.3607 23.0688 14.332C23.0401 14.3034 23.0258 14.2666 23.0258 14.2216V11.3375C23.0258 11.2925 23.0401 11.2557 23.0688 11.227C23.0974 11.1984 23.1342 11.1841 23.1792 11.1841H24.6151C25.102 11.1841 25.4558 11.2659 25.6767 11.4295C25.9017 11.5932 26.0142 11.8141 26.0142 12.0923C26.0142 12.2477 25.9835 12.3745 25.9222 12.4727C25.8608 12.5709 25.779 12.6527 25.6767 12.7182C25.8117 12.7877 25.9181 12.8839 25.9958 13.0066C26.0735 13.1293 26.1124 13.2705 26.1124 13.43C26.1124 13.7245 25.9979 13.9557 25.7688 14.1234C25.5397 14.2911 25.1838 14.375 24.701 14.375H23.1792ZM24.0199 13.7184H24.6458C24.7726 13.7184 24.8749 13.6959 24.9526 13.6509C25.0304 13.6018 25.0692 13.5241 25.0692 13.4177C25.0692 13.3114 25.0324 13.2357 24.9588 13.1907C24.8892 13.1416 24.7849 13.117 24.6458 13.117H24.0199V13.7184ZM24.0199 12.4298H24.6335C24.7604 12.4298 24.8606 12.4052 24.9342 12.3561C25.012 12.303 25.0508 12.2252 25.0508 12.123C25.0508 12.0166 25.012 11.943 24.9342 11.902C24.8606 11.8611 24.7604 11.8407 24.6335 11.8407H24.0199V12.4298ZM28.2567 14.4364C27.9131 14.4364 27.6226 14.3811 27.3854 14.2707C27.1522 14.1602 26.9722 14.0027 26.8454 13.7982C26.7226 13.5895 26.6531 13.342 26.6367 13.0557C26.6326 12.9739 26.6306 12.8818 26.6306 12.7795C26.6306 12.6732 26.6326 12.5811 26.6367 12.5034C26.6531 12.213 26.7267 11.9655 26.8576 11.7609C26.9886 11.5564 27.1706 11.3989 27.4038 11.2884C27.6411 11.178 27.9254 11.1227 28.2567 11.1227C28.5922 11.1227 28.8765 11.178 29.1097 11.2884C29.347 11.3989 29.5311 11.5564 29.662 11.7609C29.7929 11.9655 29.8665 12.213 29.8829 12.5034C29.887 12.5811 29.889 12.6732 29.889 12.7795C29.889 12.8818 29.887 12.9739 29.8829 13.0557C29.8665 13.342 29.7949 13.5895 29.6681 13.7982C29.5454 14.0027 29.3654 14.1602 29.1281 14.2707C28.8949 14.3811 28.6045 14.4364 28.2567 14.4364ZM28.2567 13.6877C28.4408 13.6877 28.5738 13.6325 28.6556 13.522C28.7415 13.4116 28.7906 13.2459 28.8029 13.025C28.807 12.9636 28.809 12.8818 28.809 12.7795C28.809 12.6773 28.807 12.5955 28.8029 12.5341C28.7906 12.3173 28.7415 12.1536 28.6556 12.0432C28.5738 11.9286 28.4408 11.8714 28.2567 11.8714C28.0767 11.8714 27.9438 11.9286 27.8579 12.0432C27.772 12.1536 27.7249 12.3173 27.7167 12.5341C27.7126 12.5955 27.7106 12.6773 27.7106 12.7795C27.7106 12.8818 27.7126 12.9636 27.7167 13.025C27.7249 13.2459 27.772 13.4116 27.8579 13.522C27.9438 13.6325 28.0767 13.6877 28.2567 13.6877ZM30.6398 14.375C30.5989 14.375 30.5641 14.3607 30.5355 14.332C30.5068 14.3034 30.4925 14.2686 30.4925 14.2277V11.3375C30.4925 11.2925 30.5068 11.2557 30.5355 11.227C30.5641 11.1984 30.6009 11.1841 30.6459 11.1841H31.37C31.4109 11.1841 31.4457 11.1984 31.4743 11.227C31.5071 11.2557 31.5234 11.2925 31.5234 11.3375V13.5773L31.2473 13.4423L32.763 11.2823C32.7834 11.2536 32.808 11.2311 32.8366 11.2148C32.8653 11.1943 32.898 11.1841 32.9348 11.1841H33.5914C33.6323 11.1841 33.6671 11.1984 33.6957 11.227C33.7243 11.2557 33.7387 11.2905 33.7387 11.3314V14.2216C33.7387 14.2666 33.7243 14.3034 33.6957 14.332C33.6671 14.3607 33.6303 14.375 33.5853 14.375H32.8612C32.8162 14.375 32.7793 14.3607 32.7507 14.332C32.7221 14.3034 32.7078 14.2666 32.7078 14.2216V12.0493L32.99 12.1045L31.4621 14.2768C31.4457 14.3055 31.4232 14.33 31.3946 14.3505C31.3659 14.3668 31.3312 14.375 31.2903 14.375H30.6398ZM32.1616 10.7668C31.908 10.7668 31.7014 10.728 31.5418 10.6502C31.3823 10.5725 31.2657 10.4661 31.1921 10.3311C31.1225 10.1961 31.0878 10.0489 31.0878 9.88932C31.0878 9.85659 31.0959 9.83 31.1123 9.80955C31.1328 9.785 31.1634 9.77273 31.2043 9.77273H31.6953C31.7321 9.77273 31.7607 9.785 31.7812 9.80955C31.8016 9.83 31.8118 9.85659 31.8118 9.88932C31.8118 9.97523 31.8343 10.0509 31.8793 10.1164C31.9284 10.1818 32.0225 10.2145 32.1616 10.2145C32.3048 10.2145 32.3989 10.1818 32.4439 10.1164C32.493 10.0509 32.5175 9.97523 32.5175 9.88932C32.5175 9.85659 32.5278 9.83 32.5482 9.80955C32.5687 9.785 32.5973 9.77273 32.6341 9.77273H33.125C33.1618 9.77273 33.1905 9.785 33.2109 9.80955C33.2314 9.83 33.2416 9.85659 33.2416 9.88932C33.2416 10.0489 33.2048 10.1961 33.1312 10.3311C33.0616 10.4661 32.9471 10.5725 32.7875 10.6502C32.628 10.728 32.4193 10.7668 32.1616 10.7668Z" fill="white"/>
<path d="M16.486 27.5112L15.9674 25.5269H12.9252L12.4067 27.5112H9.41979L12.6763 17.5342H16.3546L19.6111 27.5112H16.486ZM14.4187 19.8366L13.4576 23.4596H15.435L14.474 19.8366H14.4187ZM25.4621 27.5112V21.9592H25.4068L21.7423 27.5112H18.949V17.5342H21.8806V23.0862H21.9359L25.6004 17.5342H28.3937V27.5112H25.4621ZM30.8982 23.4872V21.3439H32.1912C32.9794 21.3439 33.4772 20.9774 33.4772 20.3759C33.4772 19.7675 32.9794 19.401 32.1566 19.401C31.3269 19.401 30.7669 19.8781 30.7669 20.5764H28.1188C28.1326 18.5506 29.7297 17.2577 32.2188 17.2577C34.6249 17.2577 36.2013 18.3432 36.2013 19.9956C36.2013 21.1503 35.4339 22.0422 34.293 22.2427V22.298C35.662 22.4294 36.547 23.3697 36.547 24.6903C36.547 26.5363 34.7701 27.7878 32.1428 27.7878C29.6813 27.7878 28.0289 26.4741 27.939 24.4414H30.7323C30.7461 25.112 31.3062 25.52 32.205 25.52C33.007 25.52 33.5394 25.0844 33.5394 24.4414C33.5394 23.8399 33.0278 23.4872 32.1773 23.4872H30.8982Z" fill="white"/>
<path d="M8.61045 34.6592C8.56545 34.6592 8.52864 34.6449 8.5 34.6162C8.47136 34.5835 8.45704 34.5467 8.45704 34.5058V30.5171C8.45704 30.4721 8.47136 30.4353 8.5 30.4067C8.53273 30.378 8.56954 30.3637 8.61045 30.3637H9.40204C9.44704 30.3637 9.48386 30.378 9.5125 30.4067C9.54114 30.4353 9.55545 30.4721 9.55545 30.5171V32.9901L11.3043 30.4803C11.3248 30.4476 11.3514 30.421 11.3841 30.4005C11.4168 30.376 11.4598 30.3637 11.513 30.3637H12.2248C12.2657 30.3637 12.3005 30.378 12.3291 30.4067C12.3618 30.4353 12.3782 30.4721 12.3782 30.5171V34.5058C12.3782 34.5508 12.3618 34.5876 12.3291 34.6162C12.3005 34.6449 12.2657 34.6592 12.2248 34.6592H11.4332C11.3882 34.6592 11.3493 34.6449 11.3166 34.6162C11.288 34.5876 11.2736 34.5508 11.2736 34.5058V32.1249L9.53091 34.5426C9.51045 34.5712 9.48386 34.5978 9.45114 34.6224C9.4225 34.6469 9.37954 34.6592 9.32227 34.6592H8.61045ZM13.319 34.6592C13.274 34.6592 13.2372 34.6449 13.2086 34.6162C13.1799 34.5876 13.1656 34.5508 13.1656 34.5058V31.6217C13.1656 31.5767 13.1799 31.5399 13.2086 31.5112C13.2372 31.4826 13.274 31.4683 13.319 31.4683H14.0431C14.084 31.4683 14.1188 31.4826 14.1474 31.5112C14.1801 31.5399 14.1965 31.5767 14.1965 31.6217V32.6403H15.3011V31.6217C15.3011 31.5767 15.3154 31.5399 15.344 31.5112C15.3726 31.4826 15.4095 31.4683 15.4545 31.4683H16.1786C16.2195 31.4683 16.2542 31.4826 16.2829 31.5112C16.3156 31.5399 16.332 31.5767 16.332 31.6217V34.5058C16.332 34.5508 16.3156 34.5876 16.2829 34.6162C16.2542 34.6449 16.2195 34.6592 16.1786 34.6592H15.4545C15.4095 34.6592 15.3726 34.6449 15.344 34.6162C15.3154 34.5876 15.3011 34.5508 15.3011 34.5058V33.4442H14.1965V34.5058C14.1965 34.5508 14.1801 34.5876 14.1474 34.6162C14.1188 34.6449 14.084 34.6592 14.0431 34.6592H13.319ZM18.0421 34.6592C18.0012 34.6592 17.9644 34.6449 17.9317 34.6162C17.903 34.5876 17.8887 34.5508 17.8887 34.5058V32.2721H16.956C16.9151 32.2721 16.8783 32.2578 16.8455 32.2292C16.8169 32.2005 16.8026 32.1637 16.8026 32.1187V31.6217C16.8026 31.5767 16.8169 31.5399 16.8455 31.5112C16.8783 31.4826 16.9151 31.4683 16.956 31.4683H19.8401C19.881 31.4683 19.9158 31.4826 19.9444 31.5112C19.9771 31.5399 19.9935 31.5767 19.9935 31.6217V32.1187C19.9935 32.1637 19.9771 32.2005 19.9444 32.2292C19.9158 32.2578 19.881 32.2721 19.8401 32.2721H18.9074V34.5058C18.9074 34.5508 18.893 34.5876 18.8644 34.6162C18.8358 34.6449 18.799 34.6592 18.754 34.6592H18.0421ZM21.9133 34.7205C21.4305 34.7205 21.046 34.5896 20.7596 34.3278C20.4733 34.066 20.324 33.6774 20.3117 33.1619C20.3117 33.1333 20.3117 33.0965 20.3117 33.0515C20.3117 33.0065 20.3117 32.9717 20.3117 32.9471C20.324 32.624 20.3955 32.3478 20.5265 32.1187C20.6615 31.8855 20.8455 31.7096 21.0787 31.591C21.316 31.4683 21.5921 31.4069 21.9071 31.4069C22.2671 31.4069 22.5637 31.4785 22.7969 31.6217C23.0342 31.7649 23.2121 31.9592 23.3308 32.2046C23.4494 32.4501 23.5087 32.7303 23.5087 33.0453V33.1926C23.5087 33.2376 23.4924 33.2744 23.4596 33.303C23.431 33.3317 23.3962 33.346 23.3553 33.346H21.3917C21.3917 33.3501 21.3917 33.3562 21.3917 33.3644C21.3917 33.3726 21.3917 33.3808 21.3917 33.389C21.3958 33.5076 21.4162 33.616 21.453 33.7142C21.4899 33.8124 21.5471 33.8901 21.6249 33.9474C21.7026 34.0046 21.7967 34.0333 21.9071 34.0333C21.989 34.0333 22.0565 34.021 22.1096 33.9965C22.1669 33.9678 22.214 33.9371 22.2508 33.9044C22.2876 33.8676 22.3162 33.8369 22.3367 33.8124C22.3735 33.7715 22.4021 33.7469 22.4226 33.7387C22.4471 33.7265 22.484 33.7203 22.533 33.7203H23.294C23.3349 33.7203 23.3676 33.7326 23.3921 33.7571C23.4208 33.7776 23.433 33.8083 23.429 33.8492C23.4249 33.9187 23.3901 34.0026 23.3246 34.1008C23.2592 34.199 23.163 34.2971 23.0362 34.3953C22.9135 34.4894 22.758 34.5671 22.5699 34.6285C22.3817 34.6899 22.1628 34.7205 21.9133 34.7205ZM21.3917 32.7385H22.4287V32.7262C22.4287 32.5953 22.4083 32.4808 22.3674 32.3826C22.3305 32.2844 22.2712 32.2087 22.1894 32.1555C22.1117 32.1024 22.0176 32.0758 21.9071 32.0758C21.7967 32.0758 21.7026 32.1024 21.6249 32.1555C21.5512 32.2087 21.494 32.2844 21.453 32.3826C21.4121 32.4808 21.3917 32.5953 21.3917 32.7262V32.7385ZM24.2374 35.8251C24.1924 35.8251 24.1556 35.8108 24.127 35.7821C24.0983 35.7535 24.084 35.7167 24.084 35.6717V31.6217C24.084 31.5767 24.0983 31.5399 24.127 31.5112C24.1556 31.4826 24.1924 31.4683 24.2374 31.4683H24.9308C24.9717 31.4683 25.0065 31.4826 25.0351 31.5112C25.0679 31.5399 25.0842 31.5767 25.0842 31.6217V31.8487C25.1783 31.7219 25.3031 31.6176 25.4586 31.5358C25.614 31.4499 25.8063 31.4069 26.0354 31.4069C26.2399 31.4069 26.4199 31.4396 26.5754 31.5051C26.7308 31.5665 26.8638 31.6585 26.9742 31.7812C27.0847 31.904 27.1706 32.0533 27.232 32.2292C27.2974 32.4051 27.3342 32.6076 27.3424 32.8367C27.3465 32.9185 27.3486 32.9942 27.3486 33.0637C27.3486 33.1333 27.3465 33.209 27.3424 33.2908C27.3342 33.5117 27.2995 33.7101 27.2381 33.886C27.1767 34.0619 27.0908 34.2112 26.9804 34.334C26.8699 34.4567 26.7349 34.5528 26.5754 34.6224C26.4199 34.6878 26.2399 34.7205 26.0354 34.7205C25.8349 34.7205 25.659 34.6858 25.5076 34.6162C25.3604 34.5426 25.2376 34.4403 25.1395 34.3094V35.6717C25.1395 35.7167 25.1251 35.7535 25.0965 35.7821C25.0679 35.8108 25.0311 35.8251 24.9861 35.8251H24.2374ZM25.704 33.8983C25.8431 33.8983 25.9515 33.8696 26.0292 33.8124C26.107 33.7551 26.1622 33.6774 26.1949 33.5792C26.2317 33.481 26.2542 33.3726 26.2624 33.254C26.2706 33.1271 26.2706 33.0003 26.2624 32.8735C26.2542 32.7549 26.2317 32.6465 26.1949 32.5483C26.1622 32.4501 26.107 32.3724 26.0292 32.3151C25.9515 32.2578 25.8431 32.2292 25.704 32.2292C25.569 32.2292 25.4606 32.2599 25.3788 32.3212C25.297 32.3785 25.2376 32.4542 25.2008 32.5483C25.164 32.6424 25.1436 32.7446 25.1395 32.8551C25.1354 32.9328 25.1333 33.0085 25.1333 33.0821C25.1333 33.1558 25.1354 33.2335 25.1395 33.3153C25.1436 33.4176 25.1661 33.5137 25.207 33.6037C25.2479 33.6896 25.3092 33.7612 25.3911 33.8185C25.4729 33.8717 25.5772 33.8983 25.704 33.8983ZM28.1086 34.6592C28.0636 34.6592 28.0268 34.6449 27.9982 34.6162C27.9695 34.5876 27.9552 34.5508 27.9552 34.5058V31.6217C27.9552 31.5767 27.9695 31.5399 27.9982 31.5112C28.0268 31.4826 28.0636 31.4683 28.1086 31.4683H28.8327C28.8736 31.4683 28.9084 31.4826 28.937 31.5112C28.9697 31.5399 28.9861 31.5767 28.9861 31.6217V32.6403H30.0907V31.6217C30.0907 31.5767 30.105 31.5399 30.1336 31.5112C30.1622 31.4826 30.1991 31.4683 30.2441 31.4683H30.9682C31.0091 31.4683 31.0438 31.4826 31.0725 31.5112C31.1052 31.5399 31.1216 31.5767 31.1216 31.6217V34.5058C31.1216 34.5508 31.1052 34.5876 31.0725 34.6162C31.0438 34.6449 31.0091 34.6592 30.9682 34.6592H30.2441C30.1991 34.6592 30.1622 34.6449 30.1336 34.6162C30.105 34.5876 30.0907 34.5508 30.0907 34.5058V33.4442H28.9861V34.5058C28.9861 34.5508 28.9697 34.5876 28.937 34.6162C28.9084 34.6449 28.8736 34.6592 28.8327 34.6592H28.1086ZM33.3411 34.7205C32.8583 34.7205 32.4738 34.5896 32.1874 34.3278C31.9011 34.066 31.7517 33.6774 31.7395 33.1619C31.7395 33.1333 31.7395 33.0965 31.7395 33.0515C31.7395 33.0065 31.7395 32.9717 31.7395 32.9471C31.7517 32.624 31.8233 32.3478 31.9542 32.1187C32.0892 31.8855 32.2733 31.7096 32.5065 31.591C32.7438 31.4683 33.0199 31.4069 33.3349 31.4069C33.6949 31.4069 33.9915 31.4785 34.2247 31.6217C34.462 31.7649 34.6399 31.9592 34.7586 32.2046C34.8772 32.4501 34.9365 32.7303 34.9365 33.0453V33.1926C34.9365 33.2376 34.9201 33.2744 34.8874 33.303C34.8588 33.3317 34.824 33.346 34.7831 33.346H32.8195C32.8195 33.3501 32.8195 33.3562 32.8195 33.3644C32.8195 33.3726 32.8195 33.3808 32.8195 33.389C32.8236 33.5076 32.844 33.616 32.8808 33.7142C32.9176 33.8124 32.9749 33.8901 33.0526 33.9474C33.1304 34.0046 33.2245 34.0333 33.3349 34.0333C33.4167 34.0333 33.4842 34.021 33.5374 33.9965C33.5947 33.9678 33.6417 33.9371 33.6786 33.9044C33.7154 33.8676 33.744 33.8369 33.7645 33.8124C33.8013 33.7715 33.8299 33.7469 33.8504 33.7387C33.8749 33.7265 33.9117 33.7203 33.9608 33.7203H34.7217C34.7626 33.7203 34.7954 33.7326 34.8199 33.7571C34.8486 33.7776 34.8608 33.8083 34.8567 33.8492C34.8526 33.9187 34.8179 34.0026 34.7524 34.1008C34.687 34.199 34.5908 34.2971 34.464 34.3953C34.3413 34.4894 34.1858 34.5671 33.9976 34.6285C33.8095 34.6899 33.5906 34.7205 33.3411 34.7205ZM32.8195 32.7385H33.8565V32.7262C33.8565 32.5953 33.8361 32.4808 33.7951 32.3826C33.7583 32.2844 33.699 32.2087 33.6172 32.1555C33.5395 32.1024 33.4454 32.0758 33.3349 32.0758C33.2245 32.0758 33.1304 32.1024 33.0526 32.1555C32.979 32.2087 32.9217 32.2844 32.8808 32.3826C32.8399 32.4808 32.8195 32.5953 32.8195 32.7262V32.7385ZM36.4752 34.6592C36.4343 34.6592 36.3975 34.6449 36.3647 34.6162C36.3361 34.5876 36.3218 34.5508 36.3218 34.5058V32.2721H35.3891C35.3482 32.2721 35.3113 32.2578 35.2786 32.2292C35.25 32.2005 35.2357 32.1637 35.2357 32.1187V31.6217C35.2357 31.5767 35.25 31.5399 35.2786 31.5112C35.3113 31.4826 35.3482 31.4683 35.3891 31.4683H38.2732C38.3141 31.4683 38.3488 31.4826 38.3775 31.5112C38.4102 31.5399 38.4266 31.5767 38.4266 31.6217V32.1187C38.4266 32.1637 38.4102 32.2005 38.3775 32.2292C38.3488 32.2578 38.3141 32.2721 38.2732 32.2721H37.3404V34.5058C37.3404 34.5508 37.3261 34.5876 37.2975 34.6162C37.2688 34.6449 37.232 34.6592 37.187 34.6592H36.4752Z" fill="white"/>
</g>
<defs>
<filter id="filter0_b_1143_653" x="0.269709" y="-0.255682" width="45.5114" height="45.5114" filterUnits="userSpaceOnUse" color-interpolation-filters="sRGB">
<feFlood flood-opacity="0" result="BackgroundImageFix"/>
<feGaussianBlur in="BackgroundImageFix" stdDeviation="0.127841"/>
<feComposite in2="SourceAlpha" operator="in" result="effect1_backgroundBlur_1143_653"/>
<feBlend mode="normal" in="SourceGraphic" in2="effect1_backgroundBlur_1143_653" result="shape"/>
</filter>
<linearGradient id="paint0_linear_1143_653" x1="23.0254" y1="0" x2="23.0254" y2="45" gradientUnits="userSpaceOnUse">
<stop stop-color="#FF94E1"/>
<stop offset="1" stop-color="#D448D7"/>
</linearGradient>
<clipPath id="clip0_1143_653">
<rect x="0.525391" width="45" height="45" rx="6.13915" fill="white"/>
</clipPath>
</defs>
</svg>
