<svg width="45" height="45" viewBox="0 0 45 45" fill="none" xmlns="http://www.w3.org/2000/svg">
<rect width="45" height="45" rx="6.13915" fill="white"/>
<path d="M36.5608 17.96C36.5609 18.7135 36.3375 19.45 35.919 20.0765C35.5004 20.703 34.9055 21.1913 34.2094 21.4797C33.5133 21.768 32.7473 21.8435 32.0084 21.6965C31.2694 21.5494 30.5906 21.1866 30.0579 20.6538L30.0268 20.6201L26.2265 16.3291C25.9052 16.0137 25.4979 15.8002 25.0557 15.7154C24.6135 15.6306 24.1562 15.6783 23.741 15.8526C23.3259 16.0268 22.9714 16.3197 22.7221 16.6947C22.4729 17.0696 22.3399 17.5098 22.3399 17.96C22.3399 18.4103 22.4729 18.8505 22.7221 19.2254C22.9714 19.6003 23.3259 19.8933 23.741 20.0675C24.1562 20.2417 24.6135 20.2894 25.0557 20.2047C25.4979 20.1199 25.9052 19.9064 26.2265 19.591L26.422 19.3701C26.4883 19.295 26.5688 19.2338 26.6588 19.1899C26.7488 19.1459 26.8465 19.1201 26.9465 19.114C27.0464 19.1078 27.1466 19.1214 27.2413 19.1539C27.336 19.1865 27.4234 19.2374 27.4984 19.3037C27.5735 19.37 27.6347 19.4505 27.6786 19.5405C27.7226 19.6305 27.7484 19.7282 27.7545 19.8282C27.7607 19.9281 27.7471 20.0283 27.7146 20.123C27.682 20.2177 27.6311 20.3051 27.5648 20.3801L27.3521 20.6201L27.321 20.6538C26.7882 21.1864 26.1095 21.5491 25.3706 21.6961C24.6317 21.843 23.8659 21.7675 23.1699 21.4792C22.4739 21.1909 21.879 20.7026 21.4605 20.0762C21.0419 19.4498 20.8185 18.7134 20.8185 17.96C20.8185 17.2067 21.0419 16.4702 21.4605 15.8438C21.879 15.2174 22.4739 14.7292 23.1699 14.4409C23.8659 14.1525 24.6317 14.0771 25.3706 14.224C26.1095 14.3709 26.7882 14.7336 27.321 15.2663L27.3521 15.3L31.1524 19.591C31.4737 19.9064 31.881 20.1199 32.3232 20.2047C32.7653 20.2894 33.2227 20.2417 33.6379 20.0675C34.053 19.8933 34.4075 19.6003 34.6568 19.2254C34.906 18.8505 35.039 18.4103 35.039 17.96C35.039 17.5098 34.906 17.0696 34.6568 16.6947C34.4075 16.3197 34.053 16.0268 33.6379 15.8526C33.2227 15.6783 32.7653 15.6306 32.3232 15.7154C31.881 15.8002 31.4737 16.0137 31.1524 16.3291L30.9569 16.55C30.8905 16.625 30.8101 16.6863 30.7201 16.7302C30.6301 16.7742 30.5323 16.7999 30.4324 16.8061C30.3324 16.8123 30.2323 16.7987 30.1375 16.7661C30.0428 16.7336 29.9555 16.6827 29.8804 16.6163C29.8054 16.55 29.7442 16.4696 29.7002 16.3796C29.6563 16.2896 29.6305 16.1918 29.6243 16.0919C29.6182 15.9919 29.6318 15.8917 29.6643 15.797C29.6969 15.7023 29.7478 15.615 29.8141 15.5399L30.0268 15.3L30.0579 15.2663C30.5906 14.7335 31.2694 14.3706 32.0084 14.2236C32.7473 14.0766 33.5133 14.152 34.2094 14.4404C34.9055 14.7287 35.5004 15.217 35.919 15.8435C36.3375 16.47 36.5609 17.2066 36.5608 17.96Z" fill="#040321"/>
<path d="M9.78667 25.237C9.9039 25.151 9.99378 25.0377 10.0563 24.897C10.1267 24.7485 10.1696 24.5844 10.1853 24.4046C10.2087 24.2248 10.2087 24.0334 10.1853 23.8301C10.1618 23.6269 10.1267 23.4198 10.0798 23.2088C10.0719 23.1697 10.0641 23.1228 10.0563 23.0681C10.0563 23.0056 10.0993 22.947 10.1853 22.8923L12.0024 21.6027C12.1118 21.5401 12.1822 21.5206 12.2134 21.5441C12.2447 21.5675 12.2799 21.6183 12.319 21.6965C12.4362 21.9544 12.5378 22.2318 12.6238 22.5288C12.7176 22.818 12.7957 23.1189 12.8582 23.4315C12.9208 23.7364 12.9677 24.0412 12.9989 24.346C13.0302 24.643 13.0536 24.9243 13.0693 25.1901C13.0771 25.3386 13.081 25.5262 13.081 25.7528C13.081 25.9716 13.0771 26.1983 13.0693 26.4328C13.0614 26.6672 13.0497 26.89 13.0341 27.101C13.0263 27.3042 13.0146 27.4684 12.9989 27.5934C12.9598 27.906 12.8934 28.2069 12.7996 28.4961C12.7136 28.7853 12.5925 29.0354 12.4362 29.2464C12.2799 29.4496 12.0845 29.6685 11.85 29.9029C11.6155 30.1452 11.3107 30.4149 10.9356 30.7119C10.9043 30.7353 10.8691 30.7549 10.8301 30.7705C10.791 30.7939 10.7519 30.8057 10.7128 30.8057C10.6816 30.8057 10.6542 30.79 10.6308 30.7588C10.6151 30.7353 10.6151 30.6884 10.6308 30.6181C10.6855 30.2976 10.7285 29.9538 10.7597 29.5864C10.791 29.2191 10.8105 28.8517 10.8183 28.4844C10.8262 28.1092 10.8262 27.7497 10.8183 27.4058C10.8183 27.0619 10.8105 26.7571 10.7949 26.4914C10.6933 26.5148 10.5995 26.5305 10.5135 26.5383C10.4354 26.5461 10.3533 26.55 10.2673 26.55C10.0641 26.5578 9.87655 26.5383 9.7046 26.4914C9.53266 26.4445 9.37634 26.3859 9.23566 26.3155C9.09498 26.2374 8.96993 26.1553 8.86051 26.0693C8.75109 25.9834 8.6573 25.9052 8.57914 25.8349C8.42283 25.6707 8.45409 25.5887 8.67293 25.5887C8.82143 25.573 8.99728 25.5457 9.20049 25.5066C9.4037 25.4675 9.59909 25.3777 9.78667 25.237Z" fill="#040321"/>
<path d="M15.4374 29.5747C15.3358 29.4731 15.2967 29.391 15.3202 29.3285C15.3436 29.266 15.4101 29.2034 15.5195 29.1409C15.754 29.0159 16.0236 28.8752 16.3284 28.7189C16.6332 28.5626 16.9263 28.418 17.2077 28.2851C17.489 28.1444 17.7313 28.0233 17.9345 27.9217C18.1456 27.8201 18.2706 27.7614 18.3097 27.7458C18.5442 27.5973 18.7669 27.3511 18.9779 27.0072C19.1968 26.6633 19.3765 26.2921 19.5172 25.8935C19.6657 25.4949 19.7595 25.1041 19.7986 24.7211C19.8377 24.3382 19.7986 24.0294 19.6814 23.795C19.5954 23.6074 19.4703 23.455 19.3062 23.3378C19.1421 23.2205 18.9506 23.1463 18.7317 23.115C18.5207 23.0837 18.2862 23.0994 18.0283 23.1619C17.7704 23.2244 17.5086 23.3378 17.2429 23.5019C17.0006 23.6582 16.8091 23.8223 16.6684 23.9943C16.5355 24.1584 16.4378 24.3343 16.3753 24.5218C16.3128 24.7094 16.2776 24.9087 16.2698 25.1197C16.262 25.3308 16.262 25.5574 16.2698 25.7997C16.2698 25.8857 16.2503 25.9521 16.2112 25.999C16.1799 26.0381 16.0978 26.0498 15.965 26.0342C15.8477 26.0264 15.711 26.0029 15.5547 25.9638C15.4062 25.9169 15.2577 25.8622 15.1092 25.7997C14.9607 25.7294 14.82 25.6512 14.6871 25.5652C14.5542 25.4714 14.4526 25.3698 14.3823 25.2604C14.2729 25.1041 14.2064 24.9595 14.183 24.8266C14.1596 24.6938 14.1517 24.5492 14.1596 24.3929C14.1752 24.0177 14.3002 23.6543 14.5347 23.3026C14.7692 22.9509 15.1131 22.6383 15.5664 22.3647C15.8634 22.1615 16.1838 22.013 16.5277 21.9192C16.8716 21.8254 17.2194 21.7785 17.5711 21.7785C17.9697 21.7785 18.3644 21.8332 18.7552 21.9427C19.146 22.0521 19.5172 22.2123 19.8689 22.4233C20.2206 22.6343 20.5372 22.8923 20.8185 23.1971C21.1077 23.5019 21.3422 23.8458 21.5219 24.2287C21.7017 24.6039 21.8072 24.9478 21.8385 25.2604C21.8697 25.5652 21.858 25.8505 21.8033 26.1162C21.7486 26.3742 21.6626 26.6243 21.5454 26.8665C21.4282 27.1088 21.307 27.355 21.182 27.6051C21.1507 27.6833 21.1702 27.7302 21.2406 27.7458C21.4125 27.7849 21.6275 27.8591 21.8854 27.9686C22.1511 28.0702 22.4208 28.1991 22.6943 28.3554C22.9679 28.5118 23.2258 28.6876 23.4681 28.883C23.7182 29.0706 23.9175 29.2699 24.066 29.4809C24.1754 29.6138 24.2184 29.7036 24.1949 29.7505C24.1715 29.7974 24.1011 29.8013 23.9839 29.7623C23.3743 29.6372 22.8663 29.5434 22.4598 29.4809C22.0534 29.4184 21.6783 29.3832 21.3344 29.3754C21.0608 29.3676 20.7912 29.3832 20.5254 29.4223C20.2597 29.4692 19.9666 29.5434 19.6462 29.645C19.3336 29.7545 18.974 29.8951 18.5676 30.0671C18.169 30.2468 17.6883 30.4657 17.1256 30.7236C17.1022 30.7392 17.0748 30.7549 17.0436 30.7705C17.0123 30.7861 16.9732 30.7939 16.9263 30.7939C16.8872 30.8018 16.8403 30.7939 16.7856 30.7705C16.7309 30.7549 16.6723 30.7158 16.6098 30.6533L15.4374 29.5747Z" fill="#040321"/>
</svg>
