<svg width="45" height="45" viewBox="0 0 45 45" fill="none" xmlns="http://www.w3.org/2000/svg">
<rect width="45" height="45" rx="10" fill="#FAF5FF"/>
<path d="M29 29H19C18.4696 29 17.9609 28.7893 17.5858 28.4142C17.2107 28.0391 17 27.5304 17 27V15C17 14.4696 17.2107 13.9609 17.5858 13.5858C17.9609 13.2107 18.4696 13 19 13H20V18L22 16.5L24 18V13H29C29.5304 13 30.0391 13.2107 30.4142 13.5858C30.7893 13.9609 31 14.4696 31 15V27C31 27.5304 30.7893 28.0391 30.4142 28.4142C30.0391 28.7893 29.5304 29 29 29ZM27 31V33H15C14.4696 33 13.9609 32.7893 13.5858 32.4142C13.2107 32.0391 13 31.5304 13 31V17H15V31H27Z" fill="#7E22CE"/>
</svg>
