<svg width="45" height="45" viewBox="0 0 45 45" fill="none" xmlns="http://www.w3.org/2000/svg">
<rect width="45" height="45" rx="10" fill="#FAF5FF"/>
<path d="M21.9999 14C21.2675 14.5091 14.6349 20.7625 14.2856 21.3769V24.7622C14.7696 24.774 21.2028 18.0332 21.9999 17.713C22.7971 18.0332 29.2302 24.774 29.7142 24.7622V21.3769C29.365 20.7625 22.7323 14.509 21.9999 14ZM21.9999 21.2378C21.2675 21.7468 14.6349 28.0002 14.2856 28.6147V32C14.7696 32.0119 21.2028 25.271 21.9999 24.9508C22.7971 25.271 29.2302 32.0119 29.7142 32V28.6146C29.365 28.0002 22.7323 21.7468 21.9999 21.2378Z" fill="#7E22CE"/>
</svg>
