<svg width="45" height="45" viewBox="0 0 45 45" fill="none" xmlns="http://www.w3.org/2000/svg">
<rect width="45" height="45" rx="10" fill="#FAF5FF"/>
<g clip-path="url(#clip0_1147_664)">
<path d="M23.4257 11.375C23.3902 11.6854 23.3813 12.0047 23.3813 12.3151C23.3724 14.8472 24.3658 17.2241 26.1662 19.0156C28.0331 20.8737 30.4898 21.8005 32.951 21.8005C33.1771 21.8005 33.4077 21.7916 33.6338 21.7738C33.5407 20.9269 33.3678 20.0976 33.1062 19.3171C31.2215 19.3615 29.3368 18.6697 27.9134 17.2595C26.583 15.938 25.8558 14.1821 25.8646 12.324C25.8646 12.1954 25.8735 12.0668 25.8735 11.9515C25.093 11.6765 24.2727 11.477 23.4257 11.375ZM20.3038 11.3928C19.4657 11.5125 18.663 11.7209 17.8914 12.0047C18.9912 15.5567 20.969 18.8249 23.6917 21.5388C26.3613 24.1995 29.5275 26.0753 32.8977 27.1839C33.1904 26.4168 33.4165 25.6186 33.5451 24.7805C30.5829 23.7872 27.798 22.1197 25.4478 19.7783C23.0444 17.3837 21.2971 14.5235 20.3038 11.3928M28.4809 13.2419C28.1262 13.6721 27.9266 14.2086 27.9266 14.7718C27.9133 15.4192 28.1706 16.0267 28.6273 16.4835C29.0841 16.9402 29.6826 17.193 30.3301 17.193H30.339C30.8933 17.193 31.4121 17.0113 31.8423 16.6654C30.9687 15.3084 29.8201 14.1332 28.4809 13.2419ZM14.7031 13.814C14.0556 14.3328 13.457 14.9136 12.9293 15.5523L29.3369 32.084C29.9932 31.5652 30.5741 30.971 31.0929 30.328L14.7031 13.814ZM11.0136 18.887C10.7192 19.6661 10.511 20.475 10.3928 21.2994C13.4348 22.2927 16.2951 23.9778 18.6986 26.3724C21.0489 28.7138 22.7694 31.5075 23.7805 34.5496C24.6186 34.421 25.4212 34.2037 26.1839 33.9021C25.062 30.4344 23.1242 27.2549 20.4546 24.6031C17.7141 21.8936 14.4725 19.9912 11.0136 18.887M11.3929 24.3549C11.0503 24.3485 10.7076 24.3603 10.3662 24.3902C10.4682 25.2372 10.6589 26.0575 10.9293 26.838C12.8406 26.767 14.7829 27.45 16.2374 28.8956C17.5678 30.2171 18.295 31.9732 18.2862 33.8312C18.2862 33.911 18.2862 34.0041 18.2773 34.0884C19.0735 34.3587 19.8976 34.5387 20.734 34.625C20.7517 34.3678 20.7694 34.1061 20.7694 33.84C20.7739 31.3168 19.7894 28.9311 17.989 27.1396C16.1731 25.3314 13.7902 24.3993 11.3929 24.3549ZM13.8073 28.9621C13.2352 28.9621 12.6942 29.1617 12.2596 29.5253C13.1598 30.8645 14.335 32.0042 15.7009 32.8689C16.0379 32.452 16.2196 31.9287 16.2196 31.3833C16.2196 30.7359 15.9757 30.124 15.519 29.6716C15.0622 29.2149 14.4636 28.9621 13.8162 28.9621H13.8073Z" fill="#7E22CE"/>
</g>
<defs>
<clipPath id="clip0_1147_664">
<rect width="24" height="24" fill="white" transform="translate(10 11)"/>
</clipPath>
</defs>
</svg>
