<svg width="48" height="48" viewBox="0 0 48 48" fill="none" xmlns="http://www.w3.org/2000/svg">
<path d="M44.4619 17.4896C44.4621 18.5754 44.1402 19.6367 43.5371 20.5395C42.9339 21.4423 42.0766 22.1459 41.0736 22.5614C40.0705 22.9769 38.9668 23.0856 37.9019 22.8738C36.8371 22.6619 35.859 22.139 35.0913 21.3713L35.0465 21.3228L29.5703 15.1394C29.1074 14.6849 28.5205 14.3773 27.8833 14.2552C27.2461 14.133 26.587 14.2018 25.9888 14.4528C25.3906 14.7038 24.8798 15.126 24.5206 15.6663C24.1614 16.2065 23.9698 16.8409 23.9698 17.4896C23.9698 18.1384 24.1614 18.7727 24.5206 19.313C24.8798 19.8533 25.3906 20.2754 25.9888 20.5265C26.587 20.7775 27.2461 20.8463 27.8833 20.7241C28.5205 20.602 29.1074 20.2943 29.5703 19.8398L29.8521 19.5215C29.9477 19.4134 30.0636 19.3251 30.1933 19.2618C30.3229 19.1985 30.4638 19.1613 30.6078 19.1524C30.7519 19.1436 30.8963 19.1631 31.0327 19.2101C31.1692 19.257 31.2951 19.3303 31.4032 19.4259C31.5113 19.5214 31.5996 19.6374 31.6629 19.767C31.7262 19.8967 31.7634 20.0376 31.7722 20.1816C31.7811 20.3257 31.7615 20.47 31.7146 20.6065C31.6677 20.743 31.5944 20.8688 31.4988 20.977L31.1923 21.3228L31.1475 21.3713C30.3798 22.1388 29.4018 22.6615 28.337 22.8732C27.2723 23.0849 26.1687 22.9762 25.1658 22.5607C24.1629 22.1452 23.3057 21.4417 22.7026 20.5391C22.0995 19.6364 21.7776 18.5752 21.7776 17.4896C21.7776 16.4041 22.0995 15.3429 22.7026 14.4402C23.3057 13.5376 24.1629 12.834 25.1658 12.4186C26.1687 12.0031 27.2723 11.8943 28.337 12.1061C29.4018 12.3178 30.3798 12.8405 31.1475 13.608L31.1923 13.6565L36.6685 19.8398C37.1315 20.2943 37.7184 20.602 38.3555 20.7241C38.9927 20.8463 39.6518 20.7775 40.25 20.5265C40.8483 20.2754 41.359 19.8533 41.7182 19.313C42.0774 18.7727 42.269 18.1384 42.269 17.4896C42.269 16.8409 42.0774 16.2065 41.7182 15.6663C41.359 15.126 40.8483 14.7038 40.25 14.4528C39.6518 14.2018 38.9927 14.133 38.3555 14.2552C37.7184 14.3773 37.1315 14.6849 36.6685 15.1394L36.3867 15.4578C36.2912 15.5659 36.1752 15.6542 36.0456 15.7175C35.9159 15.7808 35.775 15.818 35.631 15.8268C35.4869 15.8357 35.3426 15.8161 35.2061 15.7692C35.0696 15.7223 34.9438 15.649 34.8356 15.5534C34.7275 15.4578 34.6393 15.3419 34.5759 15.2122C34.5126 15.0826 34.4755 14.9417 34.4666 14.7977C34.4577 14.6536 34.4773 14.5093 34.5242 14.3728C34.5711 14.2363 34.6445 14.1104 34.74 14.0023L35.0465 13.6565L35.0913 13.608C35.859 12.8402 36.8371 12.3174 37.9019 12.1055C38.9668 11.8937 40.0705 12.0024 41.0736 12.4179C42.0766 12.8334 42.9339 13.537 43.5371 14.4398C44.1402 15.3426 44.4621 16.4039 44.4619 17.4896Z" fill="white"/>
<path d="M5.88081 27.9756C6.04974 27.8517 6.17926 27.6884 6.26936 27.4857C6.37072 27.2717 6.43266 27.0352 6.45518 26.7762C6.48897 26.5171 6.48897 26.2412 6.45518 25.9484C6.4214 25.6556 6.37072 25.3571 6.30314 25.053C6.29188 24.9967 6.28062 24.9291 6.26936 24.8503C6.26936 24.7602 6.3313 24.6757 6.45518 24.5969L9.07367 22.7386C9.23134 22.6485 9.3327 22.6204 9.37775 22.6542C9.4228 22.6879 9.47348 22.7611 9.5298 22.8738C9.69873 23.2454 9.84514 23.6452 9.96903 24.0732C10.1042 24.4899 10.2168 24.9235 10.3069 25.374C10.397 25.8132 10.4646 26.2525 10.5096 26.6917C10.5547 27.1197 10.5885 27.5251 10.611 27.908C10.6222 28.122 10.6279 28.3923 10.6279 28.7189C10.6279 29.0343 10.6222 29.3609 10.611 29.6987C10.5997 30.0366 10.5828 30.3576 10.5603 30.6617C10.549 30.9545 10.5321 31.191 10.5096 31.3712C10.4533 31.8217 10.3576 32.2553 10.2224 32.672C10.0985 33.0887 9.92398 33.4491 9.69873 33.7532C9.47348 34.046 9.19193 34.3613 8.85406 34.6992C8.51619 35.0483 8.07696 35.4369 7.53637 35.8649C7.49132 35.8986 7.44064 35.9268 7.38432 35.9493C7.32801 35.9831 7.2717 36 7.21539 36C7.17034 36 7.13092 35.9775 7.09714 35.9324C7.07461 35.8986 7.07461 35.8311 7.09714 35.7297C7.17597 35.2679 7.23791 34.7724 7.28296 34.2431C7.32801 33.7138 7.35617 33.1844 7.36743 32.6551C7.37869 32.1145 7.37869 31.5964 7.36743 31.1009C7.36743 30.6054 7.35617 30.1661 7.33364 29.7832C7.18723 29.817 7.05209 29.8395 6.9282 29.8508C6.81558 29.862 6.69732 29.8677 6.57344 29.8677C6.28062 29.8789 6.01032 29.8508 5.76255 29.7832C5.51478 29.7156 5.28953 29.6312 5.08681 29.5298C4.88409 29.4172 4.70389 29.2989 4.54622 29.175C4.38855 29.0512 4.2534 28.9385 4.14078 28.8372C3.91553 28.6007 3.96058 28.4824 4.27593 28.4824C4.48991 28.4599 4.74331 28.4205 5.03613 28.3642C5.32895 28.3078 5.61051 28.1783 5.88081 27.9756Z" fill="white"/>
<path d="M14.0235 34.2262C13.877 34.0798 13.8207 33.9615 13.8545 33.8714C13.8883 33.7813 13.984 33.6912 14.1417 33.6011C14.4796 33.4209 14.8681 33.2182 15.3074 32.993C15.7466 32.7677 16.1689 32.5594 16.5744 32.3679C16.9798 32.1652 17.3289 31.9906 17.6218 31.8442C17.9258 31.6978 18.106 31.6133 18.1624 31.5908C18.5002 31.3768 18.8212 31.0221 19.1253 30.5265C19.4406 30.031 19.6997 29.496 19.9024 28.9216C20.1164 28.3473 20.2515 27.7841 20.3078 27.2323C20.3641 26.6804 20.3078 26.2356 20.1389 25.8977C20.015 25.6274 19.8348 25.4078 19.5983 25.2389C19.3618 25.0699 19.0859 24.9629 18.7705 24.9179C18.4664 24.8728 18.1286 24.8954 17.7569 24.9855C17.3853 25.0756 17.008 25.2389 16.6251 25.4754C16.2759 25.7006 16 25.9371 15.7973 26.1849C15.6058 26.4214 15.465 26.6748 15.3749 26.9451C15.2848 27.2154 15.2342 27.5026 15.2229 27.8067C15.2116 28.1107 15.2116 28.4374 15.2229 28.7865C15.2229 28.9104 15.1947 29.0061 15.1384 29.0737C15.0934 29.13 14.9751 29.1469 14.7837 29.1244C14.6147 29.1131 14.4176 29.0793 14.1924 29.023C13.9784 28.9554 13.7644 28.8766 13.5504 28.7865C13.3365 28.6851 13.1337 28.5725 12.9423 28.4486C12.7508 28.3135 12.6044 28.1671 12.503 28.0094C12.3454 27.7841 12.2496 27.5758 12.2159 27.3843C12.1821 27.1929 12.1708 26.9845 12.1821 26.7593C12.2046 26.2187 12.3848 25.695 12.7227 25.1882C13.0605 24.6814 13.5561 24.2309 14.2093 23.8367C14.6373 23.5439 15.099 23.3299 15.5945 23.1947C16.0901 23.0596 16.5913 22.992 17.0981 22.992C17.6724 22.992 18.2412 23.0709 18.8043 23.2285C19.3674 23.3862 19.9024 23.6171 20.4092 23.9212C20.916 24.2252 21.3721 24.5969 21.7776 25.0361C22.1943 25.4754 22.5321 25.9709 22.7912 26.5228C23.0502 27.0634 23.2022 27.5589 23.2473 28.0094C23.2923 28.4486 23.2754 28.8597 23.1966 29.2426C23.1178 29.6143 22.9939 29.9747 22.825 30.3238C22.656 30.6729 22.4815 31.0277 22.3013 31.3881C22.2562 31.5007 22.2844 31.5683 22.3857 31.5908C22.6335 31.6471 22.9432 31.7541 23.3149 31.9118C23.6978 32.0582 24.0863 32.244 24.4805 32.4693C24.8747 32.6945 25.2464 32.9479 25.5955 33.2295C25.9559 33.4998 26.2431 33.787 26.457 34.091C26.6147 34.2825 26.6767 34.412 26.6429 34.4796C26.6091 34.5472 26.5077 34.5528 26.3388 34.4965C25.4603 34.3163 24.7283 34.1811 24.1426 34.091C23.557 34.0009 23.0164 33.9503 22.5209 33.939C22.1267 33.9277 21.7381 33.9503 21.3552 34.0066C20.9723 34.0741 20.55 34.1811 20.0882 34.3275C19.6377 34.4852 19.1197 34.6879 18.534 34.9357C17.9596 35.1947 17.267 35.5101 16.4561 35.8817C16.4223 35.9043 16.3829 35.9268 16.3379 35.9493C16.2928 35.9718 16.2365 35.9831 16.1689 35.9831C16.1126 35.9944 16.045 35.9831 15.9662 35.9493C15.8874 35.9268 15.8029 35.8705 15.7128 35.7804L14.0235 34.2262Z" fill="white"/>
</svg>
