<svg width="45" height="45" viewBox="0 0 45 45" fill="none" xmlns="http://www.w3.org/2000/svg">
<rect width="45" height="45" rx="10" fill="#FAF5FF"/>
<path d="M19.941 14C20.0356 14.6719 20.3632 15.7175 20.6178 16.3541C20.8958 17.0495 21.1979 17.7101 21.7207 18.2623L23.2759 19.4256C23.9639 19.9425 24.6289 20.5025 25.2376 21.1112C25.3695 21.2431 25.7878 21.7473 25.9629 21.7272C26.1581 21.7051 26.1218 21.3485 26.1204 21.2093C26.112 20.4937 25.7163 19.4462 25.397 18.8062C24.9752 17.9607 24.4745 17.1353 23.8109 16.4541C23.3303 15.9607 22.5407 15.3967 21.9517 15.0275C21.5231 14.7587 20.3981 14.0858 19.941 14ZM12.3394 16.0598C12.3957 16.686 12.7959 17.1534 13.2221 17.5801C13.9504 18.3094 14.6806 18.766 15.5271 19.3295C15.868 19.556 16.6983 20.0994 17.0474 20.2284C16.684 20.3319 16.5212 20.2328 16.1647 20.2284C15.5884 20.222 15.0534 20.2637 14.4972 20.4246C14.6674 20.8694 15.045 21.2255 15.38 21.5521C16.2417 22.3922 18.019 23.2749 19.2053 23.5143L18.3225 23.6261L16.8022 23.9066C16.9464 24.2749 17.3981 24.7261 17.6644 25.0346C18.8527 26.4107 20.0454 27.2141 21.9027 27.1925L23.1287 27.0944C23.317 27.0924 23.6692 27.0654 23.7393 27.296C23.7868 27.4514 23.6113 27.7079 23.5255 27.83C23.296 28.1556 22.7722 28.7819 22.4912 29.0541C21.3509 30.1576 19.4966 31.189 17.8812 31.263C18.0386 31.469 18.4235 31.5332 18.6658 31.6073C19.3093 31.8054 20.3004 31.9908 20.9708 31.9986C21.8516 32.009 22.7089 31.9638 23.5701 31.7593C26.5754 31.0457 28.8471 29.1115 30.1266 26.3097C30.9039 24.6074 30.8524 22.7325 31.5042 21.3564C31.7121 20.917 31.9176 20.6242 32.2997 20.3172C32.4095 20.2284 32.7009 20.0592 32.6557 19.8944C32.615 19.7463 32.3311 19.7017 32.2016 19.6717C31.8063 19.581 31.2311 19.4933 30.8284 19.4928H30.1418C28.9697 19.5065 27.8677 20.1137 27.1404 21.0131L26.3214 22.1901C26.2154 22.3274 26.0718 22.5163 25.8751 22.4908C25.7177 22.4697 25.5431 22.2956 25.4337 22.1892L24.6844 21.4138C23.8742 20.5825 22.9222 19.8493 21.9517 19.2152C19.7423 17.7728 17.1852 16.8494 14.5953 16.3825L12.3394 16.0598ZM29.7985 20.4957C30.442 20.4329 30.4851 21.2142 29.9947 21.3343C29.5302 21.4486 29.1737 20.7433 29.7985 20.4957Z" fill="#7E22CE"/>
</svg>
