<svg width="46" height="45" viewBox="0 0 46 45" fill="none" xmlns="http://www.w3.org/2000/svg">
<rect x="0.474609" width="45" height="45" rx="6.13915" fill="url(#paint0_linear_1143_659)"/>
<path d="M22.9359 9.27832C21.61 9.27832 20.5351 10.5871 20.5351 12.2015C20.5351 13.3212 21.0521 14.2936 21.8113 14.7846L20.931 15.2101L18.5882 16.3432C18.3619 16.4613 18.2489 16.6614 18.2489 16.9447V19.6355C18.2675 19.9719 18.4611 20.2855 18.7749 20.2908H27.1095C27.4678 20.2583 27.6491 19.9574 27.6526 19.6355V16.9447C27.6526 16.6614 27.5396 16.4613 27.3133 16.3432L25.0554 15.2101L24.117 14.7465C24.8451 14.2444 25.3366 13.293 25.3366 12.2015C25.3366 10.5871 24.2618 9.27832 22.9359 9.27832ZM19.0635 10.3063C18.4929 10.3289 18.0407 10.5864 17.6971 10.9967C17.3171 11.4907 17.1318 12.0771 17.1282 12.6606C17.1516 13.5233 17.5217 14.3401 18.1807 14.7673L15.5498 16.0423C15.3688 16.1131 15.2783 16.2783 15.2783 16.538V18.6975C15.2925 18.984 15.435 19.2247 15.7024 19.2288H17.4509V16.9447C17.4799 16.334 17.7548 15.8404 18.2489 15.5995L19.997 14.7322C20.1328 14.6496 20.263 14.5373 20.3874 14.3957C19.6667 13.2359 19.5666 11.8468 20.0311 10.625C19.729 10.4322 19.3895 10.3083 19.0635 10.3063ZM26.8716 10.3063C26.4985 10.3144 26.1537 10.4577 25.8704 10.6601C26.3223 11.893 26.1976 13.2829 25.5306 14.3601C25.6778 14.5371 25.8309 14.6729 25.9893 14.7673L27.6696 15.5995C28.1815 15.8923 28.4455 16.3903 28.4506 16.9447V19.2288H30.2498C30.5457 19.2022 30.6718 18.9561 30.6744 18.6976V16.538C30.6744 16.3019 30.5839 16.1368 30.4029 16.0423L27.8056 14.7495C28.4792 14.2316 28.8174 13.4553 28.824 12.6606C28.806 12.0315 28.6218 11.4474 28.2551 10.9967C27.8719 10.5632 27.3966 10.3109 26.8716 10.3063Z" fill="#3F391C"/>
<path d="M29.0732 23.2872C28.3212 23.0328 27.4948 22.9238 26.7022 22.9238C25.3813 22.9238 23.9587 23.2145 22.9764 24.014C21.9942 23.2145 20.5716 22.9238 19.2507 22.9238C17.9297 22.9238 16.5072 23.2145 15.5249 24.014V35.2796C16.5072 34.4801 17.9297 34.1894 19.2507 34.1894C20.5716 34.1894 21.9942 34.4801 22.9764 35.2796C23.9587 34.4801 25.3813 34.1894 26.7022 34.1894C27.4948 34.1894 28.3212 34.2984 29.0732 34.5528C29.5812 34.7345 30.0215 34.9525 30.428 35.2796V24.014C30.0215 23.687 29.5812 23.4689 29.0732 23.2872ZM29.0732 33.0991C28.328 32.8448 27.5151 32.7357 26.7022 32.7357C25.5506 32.7357 23.891 33.2082 22.9764 33.826V25.4677C23.891 24.8499 25.5506 24.3774 26.7022 24.3774C27.5151 24.3774 28.328 24.4865 29.0732 24.7408V33.0991Z" fill="#3F391C"/>
<path d="M25.1511 27.0468C25.7473 27.0468 26.3231 27.1122 26.8447 27.2357V26.131C26.3095 26.022 25.7337 25.9565 25.1511 25.9565C23.9996 25.9565 22.9564 26.1673 22.1028 26.5598V27.7663C22.8683 27.3011 23.9318 27.0468 25.1511 27.0468ZM22.1028 28.4931V29.6996C22.8683 29.2344 23.9318 28.9801 25.1511 28.9801C25.7473 28.9801 26.3231 29.0455 26.8447 29.169V28.0643C26.3095 27.9553 25.7337 27.8898 25.1511 27.8898C23.9996 27.8898 22.9564 28.1079 22.1028 28.4931ZM25.1511 29.8304C23.9996 29.8304 22.9564 30.0412 22.1028 30.4337V31.6402C22.8683 31.175 23.9318 30.9207 25.1511 30.9207C25.7473 30.9207 26.3231 30.986 26.8447 31.1096V30.0049C26.3095 29.8886 25.7337 29.8304 25.1511 29.8304Z" fill="#3F391C"/>
<defs>
<linearGradient id="paint0_linear_1143_659" x1="22.9746" y1="0" x2="22.9746" y2="45" gradientUnits="userSpaceOnUse">
<stop stop-color="#FFEB80"/>
<stop offset="1" stop-color="#FFE661"/>
</linearGradient>
</defs>
</svg>
